<?xml version="1.0" standalone="no"?>
<!DOCTYPE svg PUBLIC "-//W3C//DTD SVG 1.1//EN" "http://www.w3.org/Graphics/SVG/1.1/DTD/svg11.dtd" >
<svg xmlns="http://www.w3.org/2000/svg">
<metadata>
<json>
<![CDATA[
{
	"fontFamily": "icomoon",
	"majorVersion": 1,
	"minorVersion": 0,
	"description": "Font generated by IcoMoon.",
	"version": "Version 1.0",
	"fontId": "icomoon",
	"psName": "icomoon",
	"subFamily": "Regular",
	"fullName": "icomoon"
}
]]>
</json>
</metadata>
<defs>
<font id="icomoon" horiz-adv-x="1024">
<font-face units-per-em="1024" ascent="819" descent="-205" />
<missing-glyph horiz-adv-x="1024" />
<glyph unicode="&#x20;" horiz-adv-x="368" d="" />
<glyph unicode="&#x21;" glyph-name="exclam" data-tags="exclam" horiz-adv-x="614" d="M271 781h73v-570h-73v570zM269 129h77v-77h-77v77z" />
<glyph unicode="&#x22;" glyph-name="quotedbl" data-tags="quotedbl" horiz-adv-x="614" d="M176 815h95v-113l-56-118-36 18 49 118h-52v95zM343 815h95v-113l-56-118-37 18 50 118h-52v95z" />
<glyph unicode="&#x23;" glyph-name="numbersign" data-tags="numbersign" horiz-adv-x="595" d="M575 579v-60h-120l-24-161h114v-60h-123l-36-246h-60l35 246h-161l-37-246h-61l37 246h-119v60h128l24 161h-121v60h130l34 232h60l-33-232h161l35 232h61l-35-232h111zM209 358h162l23 161h-162z" />
<glyph unicode="&#x24;" glyph-name="dollar" data-tags="dollar" horiz-adv-x="614" d="M354 739v-256c65-47 107-89 131-125 24-37 35-73 36-110 2-60-44-175-167-195v-119h-71v117c-110 14-164 103-192 154l63 37c38-71 81-109 129-119v319c-56 43-93 75-107 94-26 35-39 73-39 113 0 65 41 155 146 170v68h71v-69c79-15 125-77 155-117l-60-45c-22 29-51 68-95 83zM283 537v205c-54-14-70-63-70-90 0-46 29-78 47-95 3-4 12-11 23-20zM354 385v-257c65 22 88 83 87 118 0 25-8 48-24 72-14 19-35 42-63 67z" />
<glyph unicode="&#x25;" glyph-name="percent" data-tags="percent" horiz-adv-x="770" d="M72 1l534 819h77l-536-819h-75zM184 805c95 0 173-78 173-173 0-96-78-174-173-174-96 0-174 78-174 174 0 95 78 173 174 173zM184 520c61 0 111 51 111 112s-50 110-111 110-111-49-111-110 50-112 111-112zM586 378c96 0 174-78 174-174 0-95-78-174-174-174-95 0-173 79-173 174 0 96 78 174 173 174zM586 93c61 0 111 50 111 111s-50 111-111 111-111-50-111-111 50-111 111-111z" />
<glyph unicode="&#x26;" glyph-name="ampersand" data-tags="ampersand" horiz-adv-x="638" d="M596 272l-49 52c-23-20-53-44-93-73l-73 73-112 118c51 43 86 79 103 107s26 53 26 78c0 24-7 45-20 67-13 20-33 37-59 49-25 12-52 19-83 19-48 0-89-13-122-42-28-24-42-54-42-91 0-20 5-43 17-66 11-24 37-60 77-108-71-56-117-103-141-140-23-37-35-73-35-110 0-48 17-89 52-122 34-32 79-48 136-48 42 0 83 7 121 22 39 14 90 47 150 96l98-100h102c-18 22-39 45-65 70-33 33-59 57-79 75 29 20 59 45 91 74zM224 496c-31 34-53 66-69 94-7 12-11 24-11 37 0 17 9 33 25 46 16 12 37 18 63 18 28 0 51-6 67-18s25-27 25-44c0-14-7-32-20-51-17-27-45-54-80-82zM282 325l116-119c-51-40-96-70-136-86-25-11-50-17-77-17-34 0-63 11-87 33s-35 46-35 74c0 24 10 50 29 78s61 64 123 111c25-28 48-52 67-74z" />
<glyph unicode="&#x27;" glyph-name="quotesingle" data-tags="quotesingle" horiz-adv-x="614" d="M260 815h94v-113l-56-118-36 18 50 118h-52v95z" />
<glyph unicode="&#x28;" glyph-name="parenleft" data-tags="parenleft" horiz-adv-x="614" d="M398 870h-81c-33-76-58-158-75-247s-26-180-26-273c0-87 8-171 22-252 15-80 34-150 59-209h77c-26 61-47 134-62 215-14 82-21 167-21 255 0 95 9 188 28 277 20 89 46 166 79 234z" />
<glyph unicode="&#x29;" glyph-name="parenright" data-tags="parenright" horiz-adv-x="614" d="M216-111h81c33 76 59 158 76 247s25 180 25 273c0 87-7 170-21 251s-35 151-60 210h-76c26-62 46-134 61-216 14-81 22-166 22-254 0-95-10-187-29-276s-46-168-79-235z" />
<glyph unicode="&#x2a;" glyph-name="asterisk" data-tags="asterisk" horiz-adv-x="614" d="M444 752l37-62-158-58 158-60-37-62-129 108 28-167h-73l30 167-131-108-36 62 160 60-160 58 36 62 131-108-30 167h73l-28-167z" />
<glyph unicode="&#x2b;" glyph-name="plus" data-tags="plus" horiz-adv-x="614" d="M343 446h217v-71h-217v-218h-72v218h-217v71h217v217h72v-217z" />
<glyph unicode="&#x2c;" glyph-name="comma" data-tags="comma" horiz-adv-x="614" d="M300 168l70-33-94-196-60 29z" />
<glyph unicode="&#x2d;" glyph-name="hyphen" data-tags="hyphen" horiz-adv-x="614" d="M444 458v-73h-274v73h274z" />
<glyph unicode="&#x2e;" glyph-name="period" data-tags="period" horiz-adv-x="614" d="M269 129h77v-77h-77v77z" />
<glyph unicode="&#x2f;" glyph-name="slash" data-tags="slash" horiz-adv-x="614" d="M116 4l306 854h77l-306-854h-77z" />
<glyph unicode="&#x30;" glyph-name="zero" data-tags="zero" horiz-adv-x="583" d="M288 807c205 0 255-224 255-386s-50-386-255-386-247 226-247 386 41 386 247 386zM291 101c157 0 183 201 183 319 0 117-26 318-183 318-162 0-180-200-180-318s18-319 180-319z" />
<glyph unicode="&#x31;" glyph-name="one" data-tags="one" horiz-adv-x="317" d="M61 787h175v-735h-73v664h-102v71z" />
<glyph unicode="&#x32;" glyph-name="two" data-tags="two" horiz-adv-x="583" d="M464 438l-267-314h325v-72h-481l255 299s117 135 128 152 19 47 19 75c0 87-70 158-158 158-87 0-158-71-158-158 0-26 6-49 17-71h-74c-8 23-13 45-13 71 0 125 103 228 228 228 117 0 213-88 226-202 1-8 1-18 1-26 0-53-18-102-48-140z" />
<glyph unicode="&#x33;" glyph-name="three" data-tags="three" horiz-adv-x="567" d="M156 615h-72c2 105 89 192 195 192s193-87 193-195c0-63-31-119-78-154 67-40 112-113 112-196 0-126-102-227-227-227-123 0-223 96-228 217h72c5-81 73-147 156-147 86 0 155 71 155 157s-69 156-155 156v71c68 0 122 55 122 123s-54 123-122 123-122-53-123-120z" />
<glyph unicode="&#x34;" glyph-name="four" data-tags="four" horiz-adv-x="589" d="M439 827v-494h89v-72h-89v-209h-71v209h-327zM179 333h189v267z" />
<glyph unicode="&#x35;" glyph-name="five" data-tags="five" horiz-adv-x="592" d="M254 715l-36-192c20 6 42 9 65 9 137 0 248-112 248-249s-111-248-248-248c-117 0-205 80-232 190h73c25-71 81-122 160-122 99 0 179 80 179 179 0 98-80 180-179 180-26 0-53-6-81-14-30-8-51-14-78-27l70 366h317v-72h-258z" />
<glyph unicode="&#x36;" glyph-name="six" data-tags="six" horiz-adv-x="557" d="M424 777l-187-292c14 2 28 4 42 4 125 0 227-102 227-227 0-126-102-227-227-227-106 0-196 73-221 171-5 17-7 37-7 56 0 43 13 83 33 117l6 10 272 427zM157 360l-19-28c-10-22-16-45-16-70 0-86 71-157 157-157s155 71 155 157-69 156-155 156c-49 0-93-23-122-58z" />
<glyph unicode="&#x37;" glyph-name="seven" data-tags="seven" horiz-adv-x="569" d="M61 716v71h467l-394-754-64 33 340 650h-349z" />
<glyph unicode="&#x38;" glyph-name="eight" data-tags="eight" horiz-adv-x="557" d="M394 458c67-40 112-113 112-196 0-126-102-227-227-227-126 0-228 101-228 227 0 83 44 156 111 196-47 35-78 91-78 154 0 108 87 195 195 195s193-87 193-195c0-63-30-119-78-154zM156 612c0-68 55-123 123-123s122 55 122 123-54 123-122 123-123-55-123-123zM279 105c86 0 155 71 155 157s-69 156-155 156-157-70-157-156 71-157 157-157z" />
<glyph unicode="&#x39;" glyph-name="nine" data-tags="nine" horiz-adv-x="536" d="M123 64l186 292c-13-2-27-4-41-4-126 0-227 102-227 227 0 126 101 228 227 228 105 0 194-73 220-171 4-17 8-38 8-57 0-43-13-82-33-116l-7-11-273-427zM389 481l19 29c11 22 16 44 16 69 0 86-70 157-156 157s-156-71-156-157 70-155 156-155c49 0 92 22 121 57z" />
<glyph unicode="&#x3a;" glyph-name="colon" data-tags="colon" horiz-adv-x="614" d="M269 561h77v-77h-77v77zM269 134h77v-77h-77v77z" />
<glyph unicode="&#x3b;" glyph-name="semicolon" data-tags="semicolon" horiz-adv-x="614" d="M297 561h77v-77h-77v77zM314 168l70-33-93-196-61 29z" />
<glyph unicode="&#x3c;" glyph-name="guillemotleft" data-tags="guillemotleft" horiz-adv-x="614" d="M565 150l-505 232-11 6v67l11 7 505 230v-79l-418-191 418-192v-80z" />
<glyph unicode="&#x3d;" glyph-name="equal" data-tags="equal" horiz-adv-x="614" d="M560 557v-72h-506v72h506zM560 338v-73h-506v73h506z" />
<glyph unicode="&#x3e;" glyph-name="guillemotright" data-tags="guillemotright" horiz-adv-x="614" d="M49 692l505-230 11-7v-67l-11-6-505-232v80l418 192-418 191v79z" />
<glyph unicode="&#x3f;" glyph-name="question" data-tags="question" horiz-adv-x="614" d="M188 502h-74c-7 23-12 46-12 71 0 126 81 210 207 210 117 0 191-64 204-178 1-8 1-17 1-26 0-53-14-98-50-135-35-35-59-58-97-91-41-36-41-98-41-144h-77c0 108 24 153 59 188 34 34 83 64 109 97 22 26 28 57 28 85 0 87-49 136-136 136-88 0-138-55-138-142 0-26 6-49 17-71zM249 129h77v-77h-77v77z" />
<glyph unicode="&#x40;" glyph-name="at" data-tags="at" horiz-adv-x="770" d="M524 593h53s-39-221-59-332c-17-96 108-14 145 29 36 41 118 223-27 368-131 130-329 94-415 44-101-59-192-197-162-356 33-178 158-259 233-278 163-41 270-2 372 103 17 0 32 1 52 1-69-105-186-162-284-164-86-1-191 2-299 102-109 101-145 252-110 389 35 136 138 247 279 281s327-2 421-168c80-141 14-287-38-345-80-90-247-163-223-30 1 5 2 12 3 18-39-36-88-59-139-59-101 0-176 88-159 197s121 197 222 197c53 0 96-25 124-64 7 40 11 67 11 67zM332 245c63 0 124 46 150 109 5 24 10 49 14 74-4 66-50 113-116 113-76 0-134-66-147-148s23-148 99-148z" />
<glyph unicode="&#x41;" glyph-name="A" data-tags="A" horiz-adv-x="517" d="M532 52h-81l-89 242h-207l-88-242h-82l273 762zM258 578l-77-214h155z" />
<glyph unicode="&#x42;" glyph-name="B" data-tags="B" horiz-adv-x="551" d="M61 787h175c58 0 109-27 141-71 23-30 35-66 35-105s-12-75-35-104c-3-5-7-10-10-15 34-12 63-31 88-58 38-40 61-96 61-155 0-60-23-114-61-155-41-44-100-72-166-72h-228v735zM133 507h108c55 2 99 48 99 104s-44 102-99 105h-108v-209zM133 434v-310h158c85 1 153 70 153 155s-68 155-153 155h-158z" />
<glyph unicode="&#x43;" glyph-name="C" data-tags="C" horiz-adv-x="720" d="M721 631l-63-44c-58 79-153 131-261 131s-204-52-262-131c-38-51-60-115-60-184s22-132 60-183c58-79 154-130 262-130s203 51 261 130l60-41c-58-80-148-139-254-157-155-28-305 37-391 155-33 45-57 99-67 158-19 106 10 211 70 294 59 79 149 137 254 155 156 28 306-36 391-153z" />
<glyph unicode="&#x44;" glyph-name="D" data-tags="D" horiz-adv-x="688" d="M72 787h254c82 0 157-26 218-71 90-67 149-174 149-296 0-121-59-228-149-296-61-45-136-72-218-72h-254v735zM143 124h189c161 4 290 135 290 296 0 162-129 293-290 296h-189v-592z" />
<glyph unicode="&#x45;" glyph-name="E" data-tags="E" horiz-adv-x="567" d="M516 787v-71h-383v-209h383v-72h-383v-311h383v-72h-455v735h455z" />
<glyph unicode="&#x46;" glyph-name="F" data-tags="F" horiz-adv-x="577" d="M506 787v-71h-383v-209h383v-72h-383v-383h-72v735h455z" />
<glyph unicode="&#x47;" glyph-name="G" data-tags="G" horiz-adv-x="803" d="M397 316v73h397c-1-25-5-49-11-73-36-145-157-265-319-294-155-28-305 37-391 155-33 45-57 99-67 158-38 210 108 411 324 449 156 28 306-36 391-153l-63-44c-58 79-153 131-261 131-178 0-322-142-322-315 0-69 22-131 60-183 58-79 154-130 262-130 147 0 272 95 311 226h-311z" />
<glyph unicode="&#x48;" glyph-name="H" data-tags="H" horiz-adv-x="649" d="M516 507v280h72v-735h-72v383h-383v-383h-72v735h72v-280h383z" />
<glyph unicode="&#x49;" glyph-name="I" data-tags="I" horiz-adv-x="235" d="M82 52v735h72v-735h-72z" />
<glyph unicode="&#x4a;" glyph-name="J" data-tags="J" horiz-adv-x="490" d="M337 258v529h72v-527c0-66-28-125-72-166-41-38-96-61-156-61-62 0-120 25-161 66l52 51c28-29 66-46 109-46 85 0 155 69 156 154z" />
<glyph unicode="&#x4b;" glyph-name="K" data-tags="K" horiz-adv-x="604" d="M539 787l-350-331 374-404h-94l-326 351v-351h-71v735h71v-280l297 280h99z" />
<glyph unicode="&#x4c;" glyph-name="L" data-tags="L" horiz-adv-x="567" d="M143 787v-663h383v-72h-454v735h71z" />
<glyph unicode="&#x4d;" glyph-name="M" data-tags="M" horiz-adv-x="721" d="M51 805l310-443 310 443v-753h-73v524l-237-339-237 339v-524h-73v753z" />
<glyph unicode="&#x4e;" glyph-name="N" data-tags="N" horiz-adv-x="628" d="M506 237v551h72v-756l-455 570v-550h-72v756z" />
<glyph unicode="&#x4f;" glyph-name="O" data-tags="O" horiz-adv-x="794" d="M788 483c37-211-107-412-324-450-216-38-421 101-458 312-38 210 108 411 324 449s421-101 458-311zM397 100c178 0 323 140 323 313s-145 315-323 315-322-142-322-315 144-313 322-313z" />
<glyph unicode="&#x50;" glyph-name="P" data-tags="P" horiz-adv-x="546" d="M51 787h279c58 0 109-27 141-71 22-30 35-66 35-105s-13-75-35-104c-32-44-83-72-141-72h-207v-383h-72v735zM123 507h210c56 1 101 47 101 104 0 56-45 103-101 105h-210v-209z" />
<glyph unicode="&#x51;" glyph-name="Q" data-tags="Q" horiz-adv-x="794" d="M676-10l-76 95c-41-25-86-42-136-50-216-38-421 101-458 312-38 210 108 411 324 449s421-101 458-312c25-137-30-271-130-357l110-137h-92zM489 340l124-157c66 57 107 141 107 233 0 173-145 313-323 313s-322-140-322-313 144-315 322-315c57 0 111 16 158 40l-158 199h92z" />
<glyph unicode="&#x52;" glyph-name="R" data-tags="R" horiz-adv-x="542" d="M350 435h-104l297-383h-91l-297 383h-12v-383h-71v735h278c58 0 110-27 142-71 22-30 34-66 34-105s-12-75-34-104c-32-44-84-72-142-72zM353 716h-210v-209h210c56 1 102 47 102 104 0 56-46 103-102 105z" />
<glyph unicode="&#x53;" glyph-name="S" data-tags="S" horiz-adv-x="532" d="M114 224l-63-37c31-56 93-155 222-155 154 0 211 130 208 197-1 37-11 74-35 111s-68 79-131 126c-54 40-86 63-95 73-17 17-46 50-46 96 0 31 21 93 100 93 69 0 108-53 136-90l59 46c-34 46-90 120-193 120-130 0-179-102-179-172 0-40 13-78 39-113 15-20 54-54 115-100s103-85 126-118c17-24 24-48 25-73 1-43-36-125-136-125-57 0-108 40-152 121z" />
<glyph unicode="&#x54;" glyph-name="T" data-tags="T" horiz-adv-x="475" d="M10 787h455v-71h-192v-664h-71v664h-192v71z" />
<glyph unicode="&#x55;" glyph-name="U" data-tags="U" horiz-adv-x="649" d="M588 787v-491c0-71-28-134-72-181-48-51-115-82-191-82s-144 31-192 82c-44 47-72 111-72 181v491h72v-492c1-105 87-191 192-191s190 86 191 190v493h72z" />
<glyph unicode="&#x56;" glyph-name="V" data-tags="V" horiz-adv-x="609" d="M579 787l-275-762-273 762h82l191-526 193 526h82z" />
<glyph unicode="&#x57;" glyph-name="W" data-tags="W" horiz-adv-x="949" d="M696 261l141 526h82l-212-762-232 580-232-580-212 762h82l140-526 222 550z" />
<glyph unicode="&#x58;" glyph-name="X" data-tags="X" horiz-adv-x="609" d="M566 787l-219-357 232-378h-84l-190 308-189-308h-85l231 378-219 357h84l178-289 177 289h84z" />
<glyph unicode="&#x59;" glyph-name="Y" data-tags="Y" horiz-adv-x="585" d="M293 498l177 289h85l-226-368v-367h-72v368l-226 367h85z" />
<glyph unicode="&#x5a;" glyph-name="Z" data-tags="Z" horiz-adv-x="553" d="M54 787h469l-379-663h365v-72h-489l379 664h-345v71z" />
<glyph unicode="&#x5b;" glyph-name="bracketleft" data-tags="bracketleft" horiz-adv-x="614" d="M391 908v-73h-96v-809h96v-72h-168v954h168z" />
<glyph unicode="&#x5c;" glyph-name="backslash" data-tags="backslash" horiz-adv-x="661" d="M51 858h82l477-854h-83z" />
<glyph unicode="&#x5d;" glyph-name="bracketright" data-tags="bracketright" horiz-adv-x="614" d="M223 835v73h168v-954h-168v72h96v809h-96z" />
<glyph unicode="&#x5e;" glyph-name="asciicircum" data-tags="asciicircum" horiz-adv-x="614" d="M37 306l230 505 6 11h68l6-11 231-505h-79l-192 419-191-419h-79z" />
<glyph unicode="&#x5f;" glyph-name="underscore" data-tags="underscore" horiz-adv-x="614" d="M45-31h524v-60h-524v60z" />
<glyph unicode="&#x61;" glyph-name="a" data-tags="a" horiz-adv-x="644" d="M511 484v94h72v-526h-72v74c-50-55-124-91-206-91-152 0-285 120-285 270s133 270 285 270c82 0 156-36 206-91zM511 299v12c-4 110-95 198-207 198-115 0-215-91-215-204s100-204 215-204c112 0 203 88 207 198z" />
<glyph unicode="&#x62;" glyph-name="b" data-tags="b" horiz-adv-x="685" d="M133 806v-324c53 58 132 96 216 96 152 0 275-120 275-270s-123-270-275-270c-84 0-163 38-216 96v-82h-72v754h72zM348 104c115 0 207 91 207 204s-92 204-207 204-215-91-215-204 100-204 215-204z" />
<glyph unicode="&#x63;" glyph-name="c" data-tags="c" horiz-adv-x="593" d="M548 464l-56-39c-38 51-98 84-167 84-70 0-134-34-174-85-26-34-41-75-41-119s15-85 41-119c40-51 104-85 174-85 69 0 129 33 167 84l56-39c-50-68-131-111-222-111-92 0-178 44-230 112-35 45-55 100-55 158s20 113 55 158c52 68 138 112 230 112 91 0 172-43 222-111z" />
<glyph unicode="&#x64;" glyph-name="d" data-tags="d" horiz-adv-x="654" d="M521 482v324h72v-754h-72v82c-53-58-132-96-216-96-152 0-274 120-274 270s122 270 274 270c84 0 163-38 216-96zM306 104c115 0 215 91 215 204s-100 204-215 204c-114 0-207-91-207-204s93-204 207-204z" />
<glyph unicode="&#x65;" glyph-name="e" data-tags="e" horiz-adv-x="641" d="M600 307h-490v-2c0-113 100-204 215-204 82 0 152 47 186 115l61-29c-44-90-137-152-246-152-152 0-285 120-285 270 0 42 11 82 29 117 47 91 147 153 256 153 130 0 238-89 267-208 4-19 7-40 7-60zM121 367h400c-27 82-104 142-196 142-82 0-158-47-194-116-4-8-7-17-10-26z" />
<glyph unicode="&#x66;" glyph-name="f" data-tags="f" horiz-adv-x="347" d="M306 801v-78c-11 7-25 11-39 11-39 0-70-31-71-70v-86h110v-60h-110v-466h-72v466h-73v60h73v84c0 53 29 99 72 124 22 12 45 20 71 20 14 0 27-2 39-5z" />
<glyph unicode="&#x67;" glyph-name="g" data-tags="g" horiz-adv-x="644" d="M46 9h75c36-70 111-118 195-118 103 0 189 74 205 172 1 4 1 30 1 68-50-57-124-93-207-93-152 0-284 120-284 270s132 270 284 270c82 0 156-36 207-92-1 54-1 92-1 92h72v-484c0-14-1-29-3-42-22-129-136-227-273-227-122 0-231 76-271 184zM314 104c114 0 207 91 207 204s-93 204-207 204c-115 0-215-91-215-204s100-204 215-204z" />
<glyph unicode="&#x68;" glyph-name="h" data-tags="h" horiz-adv-x="588" d="M133 806v-292c42 40 109 64 171 64s110-24 152-64c44-42 71-102 71-168v-294h-71v298c-3 87-64 157-152 157-87 0-169-70-171-157v-298h-72v754h72z" />
<glyph unicode="&#x69;" glyph-name="i" data-tags="i" horiz-adv-x="245" d="M164 660h-82v82h82v-82zM159 52h-72v526h72v-526z" />
<glyph unicode="&#x6a;" glyph-name="j" data-tags="j" horiz-adv-x="279" d="M198 660h-82v82h82v-82zM121-34v612h73v-610c0-53-30-99-73-124-20-12-45-19-72-19-13 0-27 2-39 5v78c11-7 25-12 39-12 39 0 71 32 72 70z" />
<glyph unicode="&#x6b;" glyph-name="k" data-tags="k" horiz-adv-x="517" d="M472 578l-274-238 319-288h-107l-268 241-9-9v-232h-72v754h72v-426l229 198h110z" />
<glyph unicode="&#x6c;" glyph-name="l" data-tags="l" horiz-adv-x="235" d="M82 52v754h72v-754h-72z" />
<glyph unicode="&#x6d;" glyph-name="m" data-tags="m" horiz-adv-x="921" d="M102 578v-64c42 40 109 64 171 64s110-24 152-64c13-13 26-28 36-44 41 66 124 108 207 108 62 0 108-24 150-64 45-42 73-102 73-168v-294h-73v298c-2 87-62 157-150 157s-170-71-171-159v-296h-72v298c-3 87-64 157-152 157-87 0-169-70-171-157v-298h-71v526h71z" />
<glyph unicode="&#x6e;" glyph-name="n" data-tags="n" horiz-adv-x="527" d="M103 578v-64c42 40 109 64 171 64s109-24 151-64c44-42 72-102 72-168v-294h-72v298c-2 87-64 157-151 157-88 0-169-70-171-157v-298h-72v526h72z" />
<glyph unicode="&#x6f;" glyph-name="o" data-tags="o" horiz-adv-x="600" d="M305 593c152 0 275-121 275-271s-123-270-275-270-285 120-285 270 133 271 285 271zM304 119c114 0 207 90 207 203s-93 204-207 204c-115 0-215-91-215-204s100-203 215-203z" />
<glyph unicode="&#x70;" glyph-name="p" data-tags="p" horiz-adv-x="654" d="M133 593v-97c53 58 132 97 216 97 152 0 275-121 275-271s-123-270-275-270c-84 0-163 38-216 96v-309h-72v754h72zM348 119c115 0 207 90 207 203s-92 204-207 204-215-91-215-204 100-203 215-203z" />
<glyph unicode="&#x71;" glyph-name="q" data-tags="q" horiz-adv-x="654" d="M521 496v97h72v-754h-72v309c-53-58-132-96-216-96-152 0-274 120-274 270s122 271 274 271c84 0 163-39 216-97zM306 119c115 0 215 90 215 203s-100 204-215 204c-114 0-207-91-207-204s93-203 207-203z" />
<glyph unicode="&#x72;" glyph-name="r" data-tags="r" horiz-adv-x="379" d="M143 578v-64c42 40 99 64 161 64 19 0 38-3 55-7v-75c-17 6-36 11-55 11-87 0-159-70-161-157v-298h-71v526h71z" />
<glyph unicode="&#x73;" glyph-name="s" data-tags="s" horiz-adv-x="407" d="M321 486l45 47c-50 49-101 74-151 74-43 0-78-14-107-41-28-28-42-62-42-103 0-32 9-59 26-85 17-25 52-49 101-75 45-24 75-42 88-57 13-16 19-35 19-55 0-24-11-45-30-63-19-17-43-27-71-27-40 0-78 21-114 61l-44-51c18-24 42-43 71-56s58-20 90-20c47 0 85 15 117 46 32 32 48 69 48 113 0 32-10 60-28 86-18 25-55 51-107 78-43 22-71 42-84 58s-20 33-20 50c0 20 9 38 25 53 16 14 35 22 58 22 36 0 73-18 110-55z" />
<glyph unicode="&#x74;" glyph-name="t" data-tags="t" horiz-adv-x="336" d="M205 578h91v-60h-91v-466h-72v466h-92v60h92v228h72v-228z" />
<glyph unicode="&#x75;" glyph-name="u" data-tags="u" horiz-adv-x="568" d="M445 52v47c-42-40-110-64-172-64s-108 24-150 64c-44 43-72 102-72 168v311h72v-315c2-87 63-157 150-157 88 0 169 70 172 157v315h72v-526h-72z" />
<glyph unicode="&#x76;" glyph-name="v" data-tags="v" horiz-adv-x="537" d="M269 211l169 367h79l-248-539-249 539h79z" />
<glyph unicode="&#x77;" glyph-name="w" data-tags="w" horiz-adv-x="865" d="M610 219l156 362h79l-234-542-179 406-178-406-234 542h79l156-362 177 405z" />
<glyph unicode="&#x78;" glyph-name="x" data-tags="x" horiz-adv-x="577" d="M539 578l-204-252 222-274h-93l-175 217-176-217h-93l223 274-204 252h93l157-194 156 194h94z" />
<glyph unicode="&#x79;" glyph-name="y" data-tags="y" horiz-adv-x="558" d="M280 212l169 366h78l-347-753h-80l140 301-209 452h79z" />
<glyph unicode="&#x7a;" glyph-name="z" data-tags="z" horiz-adv-x="560" d="M48 578h492l-378-466h352v-60h-494l378 466h-350v60z" />
<glyph unicode="&#x7b;" glyph-name="braceleft" data-tags="braceleft" horiz-adv-x="614" d="M452 911h-28c-29 0-51-2-63-5-22-6-40-17-54-31-13-14-24-32-31-56-6-24-10-64-10-118-1-55-1-91-2-105-2-32-7-56-15-73-8-16-21-30-37-40-12-7-29-11-49-12v-81c25-1 44-8 59-19 16-12 28-28 34-51 6-22 10-63 10-124 0-60 2-100 5-122 4-32 13-57 26-75 14-18 31-32 54-40 15-6 39-8 73-8h28v77c-33 0-55 3-65 7s-17 9-21 15c-7 10-12 24-14 42-1 11-2 49-2 114 0 72-8 122-24 154s-43 56-80 71c33 15 57 33 71 56 15 22 26 53 30 94 2 22 3 71 3 149 0 43 7 71 18 84 11 12 33 18 68 18h16v79z" />
<glyph unicode="&#x7c;" glyph-name="bar" data-tags="bar" horiz-adv-x="614" d="M271 908h72v-954h-72v954z" />
<glyph unicode="&#x7d;" glyph-name="braceright" data-tags="braceright" horiz-adv-x="614" d="M452 390v81c-25 1-45 7-61 19-15 11-27 28-33 50-7 22-10 64-10 125-1 59-2 101-5 123-4 31-13 56-27 74-13 19-30 33-53 40-15 6-40 9-73 9h-27v-79h15c30 0 50-3 60-10s17-20 21-37c3-12 4-55 4-129 0-71 9-120 24-151s42-56 81-74c-29-12-53-30-69-53s-27-55-32-95c-2-22-4-72-4-152 0-43-5-71-16-83s-34-20-69-20h-15v-77h27c29 0 50 1 63 5 22 6 40 16 53 30 14 13 25 33 32 57 6 24 10 63 10 118 1 55 1 90 2 105 1 32 7 56 16 73 8 16 20 30 36 40 12 7 30 11 50 11z" />
<glyph unicode="&#x7e;" glyph-name="asciitilde" data-tags="asciitilde" horiz-adv-x="614" d="M561 381v82c-42-27-70-43-84-49-14-5-29-8-43-8-11 0-25 3-39 7s-42 17-81 35c-57 27-101 40-134 40-15 0-31-2-47-8-16-5-43-19-80-39v-81c37 23 65 37 83 43 17 7 34 10 48 10 10 0 22-2 34-6s41-16 85-36c56-26 100-37 132-37 14 0 30 2 46 8 15 5 43 19 80 39z" />
<glyph unicode="&#xb7;" glyph-name="periodcentered" data-tags="periodcentered" horiz-adv-x="614" d="M269 395h77v-77h-77v77z" />
<glyph unicode="&#x2013;" glyph-name="endash" data-tags="endash" horiz-adv-x="614" d="M475 458v-73h-336v73h336z" />
<glyph unicode="&#x2014;" glyph-name="emdash" data-tags="emdash" horiz-adv-x="614" d="M629 458v-73h-643v73h643z" />
<glyph unicode="&#x2039;" glyph-name="guilsinglleft" data-tags="guilsinglleft" horiz-adv-x="614" d="M565 150l-505 232-11 6v67l11 7 505 230v-79l-418-191 418-192v-80z" />
<glyph unicode="&#x203a;" glyph-name="guilsinglright" data-tags="guilsinglright" horiz-adv-x="614" d="M49 692l505-230 11-7v-67l-11-6-505-232v80l418 192-418 191v79z" />
<glyph unicode="&#xe072;" glyph-name="home" data-tags="home" horiz-adv-x="747" d="M623 468l116-106c14-13 10-23-9-23h-87v-277c0-19-16-36-35-36h-151v194c0 19-17 36-36 36h-95c-19 0-36-17-36-36v-194h-151c-19 0-36 17-36 36v277h-86c-19 0-23 10-9 23l339 308c14 13 38 13 53 0l77-69v55c0 19 17 36 36 36h75c19 0 35-17 35-36v-188z" />
<glyph unicode="&#xe08a;" glyph-name="login" data-tags="login" d="M391 34h195c37 0 68 13 92 38 24 24 39 56 39 92v391c0 36-15 68-39 92s-56 38-92 38h-195v-82h195c28 0 49-21 49-48v-391c0-27-21-49-49-49h-195v-81zM0 437v-156c0-18 15-33 33-33h182v-123c0-11 5-20 15-25 4-1 9-1 11-1 7 0 13 2 18 7l235 235c9 9 8 27 0 37l-235 234c-8 8-18 9-29 6-10-5-15-13-15-24v-124h-182c-18 0-33-15-33-33z" />
<glyph unicode="&#xe12f;" glyph-name="twitter" data-tags="twitter" horiz-adv-x="778" d="M768 598c-22-32-48-59-79-82 1-7 1-14 1-21 0-208-158-448-448-448-89 0-172 27-242 71 12-1 25-3 38-3 74 0 141 26 195 68-70 1-127 48-147 110 9-2 20-3 30-3 14 0 29 2 42 6-73 14-127 77-127 153v2c22-11 45-18 71-19-42 29-70 77-70 131 0 29 8 56 21 80 78-95 194-159 325-165-2 11-4 24-4 36 0 87 70 158 157 158 46 0 87-20 116-51 36 7 69 21 99 39-11-37-36-69-68-88 32 4 61 13 90 26z" />
<glyph unicode="&#xe137;" glyph-name="user" data-tags="user" d="M758 190c47-26 74-70 71-115-3-28-3-29-39-33-23-3-163-5-307-5-163 0-333 2-346 5-48 13-22 102 43 143 50 33 152 82 179 88 38 8 43 31 1 106-10 17-22 68-23 122-2 86 16 145 91 173 14 5 30 8 45 8 50 0 97-28 116-69 27-55 16-199-13-251-32-60-29-78 8-88 24-6 99-43 174-84z" />
<glyph unicode="&#xe892;" glyph-name="radiotele" data-tags="radiotele" d="M610.908 759.253c-5.85-0.937-10.267-5.953-10.267-11.996 0-6.701 5.441-12.142 12.142-12.142 0.658 0 1.318 0.055 1.945 0.159l-0.073-0.013c113.577 0 203.952-87.831 203.952-196.45-0.001-0.051-0.002-0.116-0.002-0.169 0-6.627 5.37-11.998 11.998-11.998s11.998 5.37 11.998 11.998c0 0.065-0.001 0.121-0.002 0.173v-0.013c0 121.924-101.877 220.444-227.945 220.444-0.558 0.093-1.217 0.148-1.876 0.148s-1.318-0.055-1.945-0.162l0.073 0.013zM422.703 723.264c-1.768-0.681-3.278-1.705-4.489-3.001l-0.007-0.008c-67.617-66.073-94.884-164.202-69.73-254.945 13.273-48.841 40.506-91.775 76.488-125.216-9.609-22.68-5.040-49.081 11.996-66.74v-97.473c-0.727-0.329-1.526-0.403-2.247-0.745-0.595-0.249-1.081-0.505-1.561-0.785l0.057 0.025c-21.96-13.657-36.322-37.346-38.235-62.989h-93.722c-0.118 0.005-0.244 0.008-0.371 0.008s-0.265-0.003-0.398-0.008l0.025 0.001c-2.98-0.324-5.593-1.705-7.493-3.742l-0.009-0.009-47.984-46.489c-2.317-2.185-3.755-5.288-3.755-8.713 0-0.1 0.002-0.2 0.005-0.3v-48.725c0.001-6.626 5.37-11.995 11.996-11.996h47.984c6.626 0.001 11.995 5.37 11.996 11.996v0 8.245l31.494 28.488h257.935l31.494-28.488v-8.245c0.001-6.626 5.37-11.995 11.996-11.996h49.489c6.626 0.001 11.995 5.37 11.996 11.996v0 48.745c0.003 0.079 0.004 0.179 0.004 0.28 0 3.433-1.44 6.523-3.748 8.713l-49.496 46.489c-2.089 2.203-4.989 3.623-8.23 3.75l-0.025 0.001h-93.722c-1.913 25.643-16.275 49.321-38.235 62.989-0.118 0.005-0.244 0.008-0.371 0.008s-0.265-0.003-0.398-0.008l0.025 0.001c-1.033 0.553-1.945 0.991-3.001 1.504v87.724c7.232 3.987 13.666 9.45 18.744 16.49 3.571-1.103 6.875-2.793 10.492-3.751 94.309-24.451 193.132 2.017 262.439 69.73 2.255 2.185 3.658 5.243 3.658 8.617s-1.403 6.441-3.654 8.617l-0.004 0.004-143.972 140.221c7.033 12.064 8.586 26.683 5.255 39.739-4.996 19.523-21.912 32.992-40.488 37.493-8.148 1.967-16.853 2.821-25.496 1.504-4.855-0.745-9.781-2.857-14.243-5.255l-148.466 143.211c-2.177 2.182-5.172 3.529-8.491 3.529-1.252 0-2.46-0.191-3.585-0.553l0.080 0.025zM427.95 693.268l140.221-134.965c-0.005-0.118-0.008-0.244-0.008-0.371s0.003-0.265 0.008-0.398l-0.001 0.025c0.985-5.192 5.209-9.147 10.441-9.742l0.057-0.007 23.992-23.25 27-26.239c0.249-0.595 0.505-1.081 0.785-1.561l-0.025 0.057c1.413-3.237 4.105-5.684 7.417-6.727l0.080-0.025c0.411-0.258 0.91-0.505 1.417-0.721l0.073-0.025 135.72-133.465c-62.713-55.572-147.193-77.554-229.449-56.233-84.409 22.333-151.129 87.655-173.962 171.715-21.672 78.194 1.213 162.244 56.233 221.947zM613.155 693.268c-6.313-0.409-11.267-5.625-11.267-11.996 0-6.645 5.384-12.025 12.025-12.025 0.265 0 0.525 0.012 0.793 0.025l-0.030-0.002c74.904 0 135.72-57.913 135.72-130.472-0.001-0.051-0.002-0.116-0.002-0.169 0-6.627 5.37-11.998 11.998-11.998s11.998 5.37 11.998 11.998c0 0.065-0.001 0.121-0.002 0.173v-0.013c0 85.945-72.386 154.464-159.718 154.464-0.218 0.021-0.488 0.025-0.745 0.025s-0.525-0.012-0.793-0.025l0.030 0.002zM613.905 626.534c-6.46-0.215-11.633-5.497-11.633-11.996 0-6.631 5.373-12.004 12.004-12.004 0.127 0 0.265 0.003 0.398 0.008l-0.025-0.001c38.056 0 65.236-28.714 65.236-63.732-0.001-0.051-0.002-0.116-0.002-0.169 0-6.627 5.37-11.998 11.998-11.998s11.998 5.37 11.998 11.998c0 0.065-0.001 0.121-0.002 0.173v-0.013c0 47.833-38.808 87.724-89.228 87.724-0.118 0.005-0.244 0.008-0.371 0.008s-0.265-0.003-0.398-0.008l0.025 0.001zM601.906 559.053c4.322 0.398 9.145 0.098 15.747-1.504 10.921-2.65 20.118-10.946 22.488-20.241 1.705-6.664 2.112-12.025 0.745-16.49l-21.745 21-17.252 17.252zM444.448 322.851c18.312-14.030 38.417-25.46 59.98-34.488-11.153-9.913-27.805-11.603-42.746-3.751-14.219 9.049-20.028 23.602-17.252 38.235zM460.938 258.37c8.355-2.66 17.064-3.022 25.496-2.247v-72.738c-3.831 0.549-8.096 0.745-11.996 0.745-4.537 0.001-9.021-0.854-13.5-1.504v75.728zM474.438 160.135c9.821-0.046 19.464-2.332 27.743-6.745 14.857-9.606 24.443-25.32 26.239-41.986h-109.469c1.801 16.675 11.386 32.38 26.239 41.986 9.406 4.592 19.416 6.793 29.248 6.745zM306.474 87.411h334.424l42.746-39.739v-32.237h-25.496v0.745c0.003 0.079 0.004 0.179 0.004 0.28 0 3.433-1.44 6.523-3.748 8.713l-0.007 0.007-38.997 35.988c-2.102 1.862-4.887 3.001-7.945 3.001-0.113 0-0.217-0.002-0.319-0.006h-266.919c-0.090 0.003-0.202 0.005-0.313 0.005-3.049 0-5.833-1.134-7.947-3.010l0.018 0.016-38.997-35.988c-2.317-2.185-3.755-5.288-3.755-8.713 0-0.1 0.002-0.2 0.005-0.3v-0.738h-23.992v32.237l41.244 39.739z" />
<glyph unicode="&#xe900;" glyph-name="addstar" data-tags="addstar" d="M78 85h561c43 0 78 35 78 78v393c0 43-35 78-78 78h-561c-43 0-78-35-78-78v-393c0-43 35-78 78-78zM42 163v393c0 19 17 35 36 35h561c19 0 36-16 36-35v-393c0-19-17-35-36-35h-561c-19 0-36 16-36 35zM136 182l114 60 114-60-22 127 92 89-127 20-57 114-56-114-128-20 92-89zM562 359h80v-45h-80v-81h-46v81h-81v45h81v81h46v-81z" />
<glyph unicode="&#xe901;" glyph-name="adjust" data-tags="adjust" d="M358 718c198 0 359-161 359-359s-161-358-359-358-358 160-358 358 160 359 358 359zM358 655v-592c164 0 296 132 296 296s-132 296-296 296z" />
<glyph unicode="&#xe902;" glyph-name="album" data-tags="album" horiz-adv-x="595" d="M81 718h434c45 0 81-37 81-81v-475c0-43-35-79-78-81v54c13 2 24 14 24 27v475c0 14-13 26-27 26h-434c-14 0-27-12-27-26 5 1 12 2 18 2 5 0 9 0 14-1l325-49c44-8 76-48 76-92v-423c0-42-30-73-71-73-4 0-10 0-15 1l-324 49c-43 8-77 48-77 91v495c0 44 37 81 81 81zM97 463l285-42 7 49-285 42zM157 420l-4-30 158-24 4 30z" />
<glyph unicode="&#xe903;" glyph-name="alignadjust" data-tags="alignadjust" horiz-adv-x="665" d="M29 656h609c15 0 28-13 28-27v-41c0-16-13-29-28-29h-609c-16 0-29 13-29 29v41c0 15 13 27 29 27zM29 490h609c15 0 28-12 28-26v-42c0-15-13-28-28-28h-609c-16 0-29 13-29 28v42c0 14 13 26 29 26zM29 324h609c15 0 28-12 28-26v-42c0-15-13-28-28-28h-609c-16 0-29 13-29 28v42c0 14 13 26 29 26zM29 160h609c15 0 28-14 28-28v-41c0-16-13-29-28-29h-609c-16 0-29 13-29 29v41c0 15 13 28 29 28z" />
<glyph unicode="&#xe904;" glyph-name="aligncenter" data-tags="aligncenter" horiz-adv-x="665" d="M500 559h-333c-16 0-29 14-29 28v42c0 14 13 27 29 27h333c14 0 27-13 27-27v-42c0-15-13-28-27-28zM610 397h-555c-15 0-27 12-27 28v41c0 16 12 27 27 27h555c15 0 28-11 28-27v-41c0-16-13-28-28-28zM527 234h-388c-16 0-28 13-28 28v42c0 15 12 28 28 28h388c14 0 28-13 28-28v-42c0-15-14-28-28-28zM29 160h609c15 0 28-14 28-28v-41c0-16-13-29-28-29h-609c-16 0-29 13-29 29v41c0 15 13 28 29 28z" />
<glyph unicode="&#xe905;" glyph-name="alignleft" data-tags="alignleft" horiz-adv-x="665" d="M0 629v-42c0-14 13-28 29-28h331c15 0 28 13 28 28v42c0 14-13 27-28 27h-331c-16 0-29-13-29-27zM0 466v-41c0-16 13-28 29-28h554c15 0 27 12 27 28v41c0 15-12 27-27 27h-554c-16 0-29-12-29-27zM0 304v-42c0-15 13-28 29-28h388c14 0 26 13 26 28v42c0 15-12 28-26 28h-388c-16 0-29-13-29-28zM0 132v-41c0-16 13-29 29-29h609c15 0 28 13 28 29v41c0 14-13 28-28 28h-609c-16 0-29-13-29-28z" />
<glyph unicode="&#xe906;" glyph-name="alignright" data-tags="alignright" horiz-adv-x="665" d="M638 559h-333c-15 0-27 14-27 28v42c0 14 12 27 27 27h333c15 0 28-13 28-27v-42c0-15-13-28-28-28zM638 397h-555c-15 0-28 12-28 28v41c0 16 13 27 28 27h555c15 0 28-11 28-27v-41c0-16-13-28-28-28zM638 234h-388c-15 0-28 13-28 28v42c0 15 13 28 28 28h388c15 0 28-13 28-28v-42c0-15-13-28-28-28zM29 160h609c15 0 28-14 28-28v-41c0-16-13-29-28-29h-609c-16 0-29 13-29 29v41c0 15 13 28 29 28z" />
<glyph unicode="&#xe907;" glyph-name="amazon" data-tags="amazon" d="M525 490v-155c0-47 20-68 38-94 6-9 7-19-1-26-19-17-57-49-76-67l-1 1c-6-6-15-7-23-3-33 28-40 41-58 67-54-55-92-73-164-73-84 0-150 53-150 157 0 81 45 136 107 163 54 24 130 27 188 34v14c0 24 2 51-12 71-12 18-37 27-57 27-38 0-71-19-79-60-2-9-9-18-18-19l-97 10c-8 2-17 10-14 22 22 118 128 152 223 152 49 0 112-13 150-49 49-46 44-106 44-172zM385 393v21c-73 0-148-15-148-101 0-43 22-72 60-72 29 0 54 16 70 45 19 35 18 67 18 107zM681 202c12-11-2-68-8-93-2-7 5-9 10-3 38 41 39 116 29 125-10 10-85 10-126-28-6-6-4-13 3-11 26 6 81 21 92 10zM653 160c12 11-1 24-13 17-83-49-175-84-261-96-129-17-259 13-369 58-9 4-14-6-6-11 104-72 235-121 372-103 98 13 206 66 277 135z" />
<glyph unicode="&#xe908;" glyph-name="android" data-tags="android" horiz-adv-x="657" d="M466 732l-39-55c61-29 105-83 110-146h-416c5 63 48 117 109 146l-39 55c-2 4-1 8 2 10s7 1 10-2l40-58c26 10 55 16 86 16s59-6 86-16l40 58c2 3 6 4 9 2s4-6 2-10zM241 589c13 0 23 10 23 23 0 12-10 23-23 23-12 0-23-11-23-23 0-13 11-23 23-23zM419 589c13 0 23 10 23 23 0 12-10 23-23 23-12 0-23-11-23-23 0-13 11-23 23-23zM0 270v185c0 26 20 48 47 48 26 0 46-22 46-48v-185c0-27-20-48-46-48-27 0-47 21-47 48zM563 270v185c0 26 21 48 47 48s47-22 47-48v-185c0-27-21-48-47-48s-47 21-47 48zM122 163v339h416v-339c0-20-17-37-37-37h-41v-105c0-26-21-47-47-47s-47 21-47 47v105h-73v-105c0-26-20-47-46-47-27 0-47 21-47 47v105h-42c-19 0-36 17-36 37z" />
<glyph unicode="&#xe909;" glyph-name="app" data-tags="app" horiz-adv-x="768" d="M577 296l-3-2c-15-8-25-14-29-14-3-1-5-2-7-3-7 13-27 52-57 104-36 66-139 309-142 319-2 10 0 20 7 24 1 1 3 1 5 1 6 0 13-4 17-7 6-5 123-184 186-298 38-69 51-94 56-103-2-1-4-2-6-4-4-5-18-13-24-16h-1zM353 596l13-7c22-12 27-38 16-60l-87 50c8 14 23 22 37 22 8 0 15-1 21-5zM368 505l1-1c3-1 3-6 2-8s-3-3-5-3h-4l-1 1-3-5h1c3-2 4-5 3-8-2-2-3-3-5-3-1 0-2 0-3 1l-1 1-6-11 1-1c2-1 3-5 2-7s-3-3-5-3c-1 0-2 0-3 1h-1l-3-5 1-1c3-2 4-5 2-8-1-2-2-3-4-3-1 0-2 1-3 1l-1 1-3-4-4-7-87 50 4 7 3 4-1 1c-3 1-4 6-2 8 1 2 2 3 4 3 1 0 2 0 3-1h1l3 4-1 1c-3 2-4 5-2 8 1 2 3 3 5 3 1 0 2-1 3-1l1-1 6 11h-1c-3 2-4 5-2 8 1 2 2 3 4 3 1 0 2-1 3-1l1-1 3 6-1 1c-3 1-4 5-2 7 1 2 3 3 5 3h4l1-1 4 7 87-50zM56 167l172 298 87-51-176-304c-15 6-30 14-44 22-14 9-29 19-42 29l1 3zM0 211v149h133l-87-149h-46zM521 243l14-21 5-5 3-6h-311l87 149h139c34-61 55-101 55-102 2-3 3-5 5-6 1-3 2-7 3-9zM657 291l-9 21c-2 3-3 5-5 7-1 3-2 6-3 8l-8 16c-3 5-6 10-10 17h146v-149h-75c0 1-1 3-1 5l-11 23c-1 2-2 5-4 7 0 3-1 5-2 7l-10 23c-1 2-4 4-5 6-1 3-2 7-3 9zM653 226l10-20 1-3s-15-13-28-20-31-13-31-13l-3 4-11 18v8l-8 6-15 21v7l-7 5-8 13-5 8c7 1 19 6 37 16 1 0 1 1 2 1s1 1 2 1c15 8 26 15 31 22l4-9 6-13v-11l7-4 10-23-1-10zM670 181l84-126c11-20 1-44-19-55-7-4-15-6-22-6-14 0-27 6-35 19l-61 139c7 3 19 8 29 13 8 5 18 11 24 16zM32 10l-5-9c-1-2-4-3-7-3h-1c-1 0-2 0-2 1-1 0-1 1-2 1-2 2-2 6-1 8l5 9 29 122c12-9 25-18 37-25s25-13 38-18z" />
<glyph unicode="&#xe90a;" glyph-name="apple" data-tags="apple" horiz-adv-x="601" d="M426 640c8 22 13 41 13 59 0 3-1 5-1 8s-1 7-2 11c-50-11-85-33-107-65-22-31-33-68-34-111 18 2 33 5 44 8 15 5 31 15 47 30 18 18 32 40 40 60zM369 540c-30-10-51-14-62-14-9 0-28 4-59 12-30 9-55 14-77 14-49 0-90-21-123-63-32-42-48-95-48-161 0-71 21-143 63-217 43-74 87-110 130-110 14 0 32 5 57 14 23 9 43 14 61 14s40-4 65-13c26-9 46-13 61-13 37 0 74 28 111 83 12 18 23 37 32 55 8 17 15 35 21 52-27 8-50 27-69 55-19 29-29 61-29 96 0 33 9 62 27 89 11 14 28 32 50 51-7 9-15 18-22 25-8 7-15 13-22 18-28 18-59 28-93 28-20 0-45-6-74-15z" />
<glyph unicode="&#xe90b;" glyph-name="arrowdown" data-tags="arrowdown" d="M466 706h-215c-26 0-45-20-45-46v-250h-170c-16 0-27-7-34-22-1-5-2-9-2-12 0-10 3-19 10-26l324-323c12-15 36-14 50 0l323 323c22 20 7 60-26 60h-171v250c0 26-18 46-44 46z" />
<glyph unicode="&#xe90c;" glyph-name="arrowleft" data-tags="arrowleft" horiz-adv-x="689" d="M689 258v215c0 26-19 45-45 45h-250v170c0 16-8 27-22 34-5 1-10 2-14 2-10 0-18-3-24-10l-324-324c-14-12-13-36 0-50l324-324c20-22 60-7 60 26v172h250c26 0 45 18 45 44z" />
<glyph unicode="&#xe90d;" glyph-name="arrowright" data-tags="arrowright" horiz-adv-x="690" d="M0 462v-215c0-26 19-45 46-45h250v-172c0-16 7-26 22-33 4-1 9-2 13-2 10 0 18 3 25 10l323 325c14 12 14 36 0 50l-323 322c-20 22-60 8-60-25v-171h-250c-27 0-46-18-46-44z" />
<glyph unicode="&#xe90e;" glyph-name="arrowup" data-tags="arrowup" d="M251 12h215c26 0 45 20 45 46v250h170c16 0 28 8 34 23 2 5 2 8 2 12 0 10-3 18-10 25l-324 323c-11 15-36 14-50 0l-323-323c-22-20-7-60 26-60h171v-250c0-26 18-46 44-46z" />
<glyph unicode="&#xe90f;" glyph-name="back" data-tags="back" horiz-adv-x="489" d="M489 641v-563l-489 281z" />
<glyph unicode="&#xe910;" glyph-name="backspace" data-tags="backspace" horiz-adv-x="768" d="M253 612h452c35 0 63-28 63-63v-379c0-35-28-64-63-64h-452l-253 253zM566 204l57 56-100 99 100 99-57 57-99-99-98 99-57-56 99-100-99-98 57-56 99 98z" />
<glyph unicode="&#xe911;" glyph-name="bad" data-tags="bad" horiz-adv-x="665" d="M505 584v37h109v70h-371s-59-45-59-45v-319s82-61 118-136c36-76 34-164 34-164h94s4 72 0 129c-5 58-24 129-24 129h260v82h-161v37h161v73h-161v37h130v70h-130zM0 642h142v-308h-142v308z" />
<glyph unicode="&#xe912;" glyph-name="ban" data-tags="ban" horiz-adv-x="715" d="M651 564c98-139 85-334-40-459s-318-137-458-40c-16 12-34 26-49 40-15 15-28 32-39 49-98 139-86 334 39 459s319 137 459 40c16-12 33-26 48-40 15-15 29-32 40-49zM129 219l370 370c-104 63-242 50-331-39-90-90-102-228-39-331zM587 499l-370-369c104-63 242-50 331 39 90 90 102 227 39 330z" />
<glyph unicode="&#xe913;" glyph-name="barcode" data-tags="barcode" horiz-adv-x="768" d="M0 62h25v594h-25v-594zM75 62h49v594h-49v-594zM173 62h50v594h-50v-594zM272 62h100v594h-100v-594zM421 62h75v594h-75v-594zM545 62h50v594h-50v-594zM644 62h25v594h-25v-594zM719 62h49v594h-49v-594z" />
<glyph unicode="&#xe914;" glyph-name="bell" data-tags="bell" horiz-adv-x="768" d="M282 63h-205c-40 0-75 29-77 70 60 45 98 101 123 163 24 62 33 130 38 202 4 49 36 93 80 126 25 18 52 33 80 42 0 3-2 6-2 8 0 36 29 64 65 64s65-28 65-64c0-2-2-6-2-8 28-9 56-24 81-41 44-32 79-76 79-124 4-71 15-142 40-204 25-63 63-120 121-164-2-41-37-70-77-70h-205c-10-48-51-83-101-83s-92 35-103 83zM103 133h562c-45 50-76 107-94 168-19 60-28 124-32 190-2 32-27 61-58 83-30 22-66 34-96 34-28 0-65-14-97-34-31-20-57-50-58-80-3-65-13-130-31-191-20-62-52-120-96-170zM385 12c5 0 7 3 7 8 0 6-2 9-7 9-32 0-56 25-56 56 0 6-3 9-8 9-6 0-10-3-10-9 0-40 33-73 74-73z" />
<glyph unicode="&#xe915;" glyph-name="bicycle" data-tags="bicycle" horiz-adv-x="921" d="M573 480l56-60c32 20 68 33 108 33 101 0 185-83 185-185 0-101-84-184-185-184-91 0-167 65-182 153l-84-5c-7 0-12 4-17 8l-170 211-10-21c56-32 96-92 96-162 0-101-84-184-186-184-101 0-184 83-184 184 0 102 83 185 184 185 16 0 31-2 46-5l42 110-115 31c-11 3-19 15-16 26 4 12 16 20 28 17l138-39c6-1 13-6 15-12 2-4 3-11 1-17l-10-23 221-42 29 87-40-3h-1c-12 0-22 12-22 23s9 22 22 23l130 6c12 0 23-10 23-22 1-13-10-22-21-23l-44-2zM463 301l55 157-215 39zM503 278l50 3c2 41 18 78 44 108l-41 44zM166 277l48 128c-9 2-20 3-30 3-77 0-139-62-139-140 0-77 62-139 139-139s141 62 141 139c0 51-27 96-67 120l-50-127c-5-11-18-16-30-12-11 5-16 17-12 28zM737 247l-137-8c14-63 69-110 137-110 77 0 140 62 140 139 0 78-63 140-140 140-29 0-55-7-77-22l93-103c5-7 8-16 4-23-3-8-11-13-20-13zM598 283l91 5-62 68c-16-22-27-45-29-73z" />
<glyph unicode="&#xe916;" glyph-name="bold" data-tags="bold" horiz-adv-x="614" d="M0 54v-43c34 1 62 2 82 3 20 0 35 1 42 1 53 4 98 7 137 6l90-2c78 0 136 10 184 32 23 11 43 27 63 49 15 15 26 33 33 53 8 27 12 51 12 73 0 80-55 148-163 173 17 8 33 16 44 22s20 10 25 14c38 28 57 61 57 105 0 19-3 38-9 55-12 35-39 64-77 82-17 10-33 15-44 17-30 8-59 12-87 12h-35c-7 0-13 0-17 1h-16c-2 0-5 0-8-1h-20l-173-5-119-3 2-38c28-4 45-6 52-6 14 0 25-3 31-7 3 0 5-2 6-4 2-7 4-22 5-50 2-50 2-90 2-120 1-31 1-52 3-64v-225c0-39-1-68-5-88-1-7-4-14-9-22-14-6-32-12-56-15-12-2-23-4-32-5zM247 414v79c2 55 0 95-1 127-2 14-2 27-2 34 24 5 43 7 59 7 52 0 91-11 117-35 26-22 39-50 39-85 0-95-56-131-162-131-18 0-35 1-50 4zM247 218v144c10 2 24 4 46 4 51 1 90-4 114-14 49-18 83-70 83-139 0-33-7-59-18-82-12-23-29-39-55-51-53-25-119-23-164-4-3 8-4 14-4 19z" />
<glyph unicode="&#xe917;" glyph-name="book" data-tags="book" horiz-adv-x="768" d="M0 105v432s54 81 196 81c143 0 188-77 188-77s45 77 188 77c142 0 196-81 196-81v-432s-95 70-198 70c-102 0-186-75-186-75s-84 75-186 75c-103 0-198-70-198-70zM65 520v-314s41 31 139 31c97 0 148-58 148-58v327s-69 50-156 50c-86 0-131-36-131-36zM416 506v-327s48 58 148 58c99 0 139-31 139-31v314s-45 36-131 36c-87 0-156-50-156-50z" />
<glyph unicode="&#xe918;" glyph-name="bookmark" data-tags="bookmark" horiz-adv-x="605" d="M39 692h495c40 0 71-34 71-75v-506c0-50-31-85-77-85h-485c-31 0-43 24-43 38v591c0 18 14 37 39 37zM134 68h394c22 0 35 16 35 43v506c0 15-12 33-29 33h-47v-383l-138 44-134-44v383h-81v-582zM278 490v-37h55v-56h37v56h55v37h-55v56h-37v-56h-55z" />
<glyph unicode="&#xe919;" glyph-name="building" data-tags="building" horiz-adv-x="607" d="M41 707h525c23 0 41-18 41-41v-592c0-23-18-41-41-41h-135v133h-255v-133h-135c-23 0-41 18-41 41v592c0 23 18 41 41 41zM90 573h427v50h-427v-50zM90 458h427v50h-427v-50zM90 343h427v50h-427v-50zM90 228h427v50h-427v-50zM290 11h-87v128h87v-128zM404 11h-87v128h87v-128z" />
<glyph unicode="&#xe91a;" glyph-name="bus" data-tags="bus" horiz-adv-x="665" d="M0 158v434c0 14 8 32 19 43 3 3 7 5 10 7h1c48 37 111 64 183 79 38 7 78 11 120 11s82-4 120-11c72-15 135-42 183-79h1c3-2 6-4 9-7 11-11 20-29 20-43v-434c0-32-22-57-51-64v-58c0-27-22-50-49-50-28 0-50 23-50 50v56h-366v-56c0-27-23-50-50-50-28 0-50 23-50 50v58c-29 7-50 32-50 64zM500 657h-334c-18 0-33-15-33-33 0-17 15-32 33-32h334c18 0 32 15 32 32 0 18-14 33-32 33zM100 325h465c18 0 33 16 33 34v165c0 18-15 34-33 34h-465c-18 0-32-16-32-34v-165c0-18 14-34 32-34zM136 158c29 0 52 24 52 53 0 30-23 53-52 53-30 0-53-23-53-53 0-29 23-53 53-53zM529 158c30 0 54 24 54 53 0 30-24 53-54 53-29 0-52-23-52-53 0-29 23-53 52-53z" />
<glyph unicode="&#xe91b;" glyph-name="camera" data-tags="camera" horiz-adv-x="737" d="M585 592h68c46 0 84-37 84-84v-364c0-46-38-84-84-84h-569c-46 0-84 38-84 84v364c0 47 38 84 84 84h69c17 27 48 66 76 66h279c28 0 60-39 77-66zM366 166c103 0 187 84 187 187 0 104-84 188-187 188-104 0-189-84-189-188 0-103 85-187 189-187zM369 466c62 0 112-51 112-113 0-61-50-112-112-112s-113 51-113 112c0 62 51 113 113 113z" />
<glyph unicode="&#xe91c;" glyph-name="car" data-tags="car" horiz-adv-x="768" d="M638 641l114-229c2-3 3-7 4-10 7-18 12-43 12-59v-109c0-34-23-62-55-70v-64c0-31-25-55-55-55-31 0-55 24-55 55v62h-438v-62c0-31-24-55-55-55-30 0-55 24-55 55v64c-32 8-55 36-55 70v109c0 16 5 41 12 59 1 3 2 7 4 10l114 229c9 17 33 33 53 33h402c20 0 44-16 53-33zM177 572l-61-139c-3-5-3-11-3-15h542c0 4 0 10-3 15l-61 139c-8 18-32 34-51 34h-312c-19 0-43-16-51-34zM150 234c32 0 57 26 57 59 0 32-25 57-57 57s-59-25-59-57c0-33 27-59 59-59zM618 234c32 0 59 26 59 59 0 32-27 57-59 57s-57-25-57-57c0-33 25-59 57-59z" />
<glyph unicode="&#xe91d;" glyph-name="category" data-tags="category" horiz-adv-x="550" d="M83 718l-55-56h496l-55 56h-386zM551 442h-551v193h551v-193zM386 497v55h-220v-55h27v28h165v-28h28zM551 221h-551v193h551v-193zM386 276v56h-220v-56h27v28h165v-28h28zM551 1h-551v192h551v-192zM386 56v55h-220v-55h27v28h165v-28h28z" />
<glyph unicode="&#xe91e;" glyph-name="check" data-tags="check" horiz-adv-x="768" d="M620 709l-304-436-210 156-106-147 358-273 410 588z" />
<glyph unicode="&#xe91f;" glyph-name="chrome" data-tags="chrome" d="M680 518h-322c-31 0-59-10-84-25-43-27-72-75-74-129l-124 215c66 84 167 139 282 139 141 0 264-82 322-200zM60 559l160-278c1-1 1-2 2-3 14-25 36-45 62-59 23-11 47-19 74-19s52 8 75 19l-125-215c-174 25-308 174-308 355 0 74 22 143 60 200zM442 493h249c16-41 26-87 26-134 0-198-161-358-359-358-8 0-15 0-23 1l160 276c1 1 1 2 2 3 13 24 20 50 20 78v5c-2 54-32 102-75 129zM239 359c0 67 52 120 119 120s120-53 120-120-53-120-120-120-119 53-119 120z" />
<glyph unicode="&#xe920;" glyph-name="cinnamon" data-tags="cinnamon" horiz-adv-x="819" d="M793 385l26-26-26-17 24-37-41-4c2 0 16-32 16-32l-34 5c0-4-2-52-2-52l-19 14 2-26-26 14 2-35-10 9c2-14 8-42 10-43-5 0-31 9-31 9-2-8-6-43-6-43l-21 11-4-46-13 11c4-30 7-77-22-80-28-3-54 32-61 59-2 3-3 5-3 5-7-10-31-31-31-31l-9 28-16-20c0-24-6-51-26-56-39-10-63 41-70 57v2c-16-3-68-13-123-15-2-19-15-37-39-37-28 0-50 24-54 46-4 2-8 3-12 5-5-22-16-45-28-50-19-8-65 7-68 31-1 5-1 12-1 19l-37-13s4 27 7 33l-40 20s13 13 23 20c2 2 4 3 6 5l-36 18s22 16 32 21c0 0-25 12-32 16 0 0 25 18 34 22 1 0-33 36-33 36s14 6 24 9c-5 0-16 23-23 30 0 0 20 5 34 6l-21 33s33 1 36 1l-14 32s28-3 36-7l-12 36 29-2-7 38s39-14 43-16c0 0-7 33 0 25 5-6 33-34 41-40 7-4 85-36 103-41 11-4 41 10 60 21-23 6-59 19-60 25 5 9 53 11 79 52 26 42 26 85 26 85l-14 15 20 11c-5 2-28 29-31 91-3 22-19 64-19 64l14-7 3 23 18-19c7 5 13 20 13 20s0-12 4-23c12-4 73-28 83-55s24-36 24-44c2 7 16 18 16 18l-3-19c4 0 87-10 87-10l3 20 11-10s37 63 47 85c10 23 35 42 35 42l-16-33c12 7 45 26 45 26-8-6-22-20-20-26 13-24 33-137 15-163 32 0 9-8 9-8l-11-7c0-6 6-40 19-55 15-19 26-32 33-36 10-3 59-20 59-20zM742 245l-2 43c12-3 26-6 29-4-1 11-11 19-10 26 0 0 31 8 34 6 0 0-22 26-22 29 0 0 21 8 22 13 2 3-20 18-25 26 0 0 19 13 24 16 0 0-13 3-24 10-26 7-37 31-41 39-3 8-34 49-35 69 10 32 22 115-13 165-5 8-15-3-15-3-5-4-51-87-51-97-4 0-10 0-10-5-10 2-100 10-113-3-5 11-35 74-70 94-36 20-63 16-63 16 2-12 3-99 39-135-17-5-20-11-20-11l13-9c-3-4-11-83-40-109-20-18-52-37-52-37 3-4 22-14 39-18 9 5 15 10 15 10l-7-11c7-1 14-1 18 1-20-14-30-24-30-24 2-2 27-8 27-8-4-4-17-23-17-23 0-1 23-6 23-6-2-2-10-17-10-17s23-2 34-14c1-1 0-1-1-1 6-4 11-7 14-9-8 2-51 14-60 13 4 7 9 21 9 21l-28 8 21 24-30 8c-23-9-53-17-77-3-31 18-93 33-93 35-17 16-42 20-42 20l3-32c-5 0-23-1-26 2-2-3 9-28 9-28 2-2-32 3-32 3 0-3 16-27 21-30-10 1-39 0-39 0 0-2 23-31 23-31-8 0-33-6-33-6l28-29c-5-2-29-7-29-7 0-2 24-30 31-30-17-4-31-22-31-22s28-13 31-13c-6-4-30-24-30-24l33-13c-11-8-28-24-28-24s28-13 36-10l-11-27 20 10c1 15 4 28 8 29 2 1 3 0 6-5 9-22-13-66 29-76 31-8 37 39 42 71 0 0 3 3 6 1 4 0 8-1 10-6 1-2 1-7 0-14 49-17 180-14 217-1-3 11-4 21-3 30 3 8 14-4 14-4-4-35 19-100 52-94 28 6 26 52 25 86l-34-21c2 1-10 18-9 36 0 0 11-15 18-21 6 5 14 9 26 21 8-12 16-30 16-30l18 20 11-23 26 25 18-23s18 26 18 29c0 0 11-18 12-19 4 0 19 35 19 35s15-12 19-11c1 7 6 36 6 34l18-7s9 36 11 41c5-2 12-2 17-5 0 0-3 2-4 32l-20 15-25-41-27 28s-28-34-37-36c-6 5-4 22-4 22-7-9-33-27-33-27 0 5-6 22-6 22l-32 5c3 0 37 9 37 9l8-21 30 26s5-18 5-21c0 0 34 31 34 35 0 0 20-30 25-28 5 4 22 42 22 43 0 0 23-16 26-23 0 1 7 28 7 28s26-18 26-15l-7 33zM684 548l-19 3s7 6 12 11c-3 2-15 5-24 4 2 6 23 12 19 16-26-4-32-7-35-16-1-1-1-3-2-4-4 6-8 12-8 14 0 8 30 59 41 75 14 20 35-103 16-120-5 4-10 7-10 7s11 6 10 10zM421 563l-14 3c-25 26-27 92-27 92s21-6 34-10c33-19 51-79 52-83l-3-2c-7 4-28 16-37 19 15-14-7 0-7 0l19-17c-1 0-26 11-26 11 2-2 9-13 9-13zM633 485v1c-4 11-3 22 1 28 3 4 7 6 11 6 6 0 14-3 22-17 10-20 4-39 0-47-3-6-9-7-12-7-10 0-14 12-22 36zM525 517c10 0 22-9 23-24 3-31-5-41-12-43-2 0-4-1-6-1-12 0-15 15-18 30-1 5-2 10-4 14-1 6-1 13 3 17 3 5 8 7 14 7zM540 488c1 3 0 10-3 14 0 0-1 0-1 1-13 12-3-21 1-19 1 1 2 2 3 4zM735 381c7 0 15-6 16-13 1-4-2-8-6-11-7-9-18-14-31-14-7 0-12 1-13 1-2 1-4 2-5 4 0 1-2 4-4 9-2-2-4-3-6-4-4-4-9-7-15-9-10-4-22-6-34-6-25 0-53 7-62 16-3 3-8 8-6 15 2 4 7 7 11 7 3 0 8-3 17-6 9-4 21-8 29-9 4-1 8-1 12-1 14 0 29 3 38 8 3 2 5 6 7 10v7c0 4-1 8-1 11-4 2-8 4-11 7-4 4-11 7-17 10-9 5-17 10-17 18 0 2 0 7 5 11 11 8 40 8 43 8 6 0 17 0 23-3 15-6 22-8 23-16 2-7-3-13-9-19-5-4-10-9-16-12v-5c0-9 1-11 1-11 7-11 12-16 14-17l1 1c1 9 8 13 13 13z" />
<glyph unicode="&#xe921;" glyph-name="circle" data-tags="circle" d="M441 716c153 0 276-124 276-276 0-143-111-262-251-274-32-94-121-163-226-163-132 0-240 107-240 239 0 108 71 198 168 229 15 137 132 245 273 245zM78 559c-43 0-78 35-78 78s35 78 78 78 77-35 77-78-34-78-77-78zM78 678c-23 0-41-18-41-41s18-41 41-41 41 18 41 41-18 41-41 41zM478 240c95 17 167 101 167 200 0 113-91 204-204 204-98 0-180-70-198-163 130-1 235-108 235-239v-2zM403 240v2c0 90-72 163-162 164 14-84 79-151 162-166zM240 79c65 0 119 37 147 91-111 23-197 110-216 221-56-26-95-83-95-149 0-91 73-163 164-163z" />
<glyph unicode="&#xe922;" glyph-name="clear" data-tags="clear" horiz-adv-x="768" d="M438 576v127c0 23-17 40-39 40h-30c-22 0-39-17-39-40v-127c0-22 17-40 39-40h30c22 0 39 18 39 40zM269 552l-90 89c-15 15-41 15-56 0l-21-21c-15-15-15-41 0-56l89-90c15-15 42-15 57 0l21 21c15 15 15 42 0 57zM577 474l89 90c15 15 15 41 0 56l-21 21c-15 15-41 15-56 0l-90-89c-15-15-15-42 0-57l21-21c15-15 42-15 57 0zM40 305h127c22 0 40 17 40 39v31c0 22-18 38-40 38h-127c-23 0-40-16-40-38v-31c0-22 17-39 40-39zM601 305h127c23 0 40 17 40 39v31c0 22-17 38-40 38h-127c-22 0-40-16-40-38v-31c0-22 18-39 40-39zM179 78l90 89c15 15 15 41 0 56l-21 22c-15 15-42 15-57 0l-89-91c-15-15-15-41 0-56l21-20c15-15 41-15 56 0zM666 154l-89 91c-15 15-42 15-57 0l-21-22c-15-15-15-41 0-56l90-89c15-15 41-15 56 0l21 20c15 15 15 41 0 56zM438 15v127c0 22-17 40-39 40h-30c-22 0-39-18-39-40v-127c0-23 17-40 39-40h30c22 0 39 17 39 40z" />
<glyph unicode="&#xe923;" glyph-name="clip" data-tags="clip" d="M175 337l280 280c3 3 27 27 65 40 53 17 107 3 150-40 44-43 57-96 40-149-12-38-37-64-40-67l-301-301c-52-52-182-119-302 0-119 119-51 250 0 301l323 324c12 12 31 12 43 0s12-31 0-43l-322-324c-5-4-106-109 0-215 103-103 204-11 215 0l301 302s17 17 25 41c10 32 3 60-25 88-60 60-118 10-129 0l-280-279c-10-10-17-27 0-44s33-9 43 0l194 194c12 11 32 11 43 0 12-12 12-32 0-44l-194-193c-27-26-82-47-129 0-48 47-27 103 0 129z" />
<glyph unicode="&#xe924;" glyph-name="cloud" data-tags="cloud" horiz-adv-x="819" d="M343 86h-172c-94 0-171 77-171 171 0 71 43 130 103 156 0 5-1 10-1 15 0 56 47 102 103 102 34 0 64-17 83-42 31 84 112 145 207 145 122 0 220-99 222-220 60-27 102-86 102-156 0-94-77-171-171-171h-167v100h81c12 0 16 8 7 17l-141 151c-4 4-10 7-16 7s-13-3-17-7l-141-151c-8-9-6-17 7-17h82v-100z" />
<glyph unicode="&#xe925;" glyph-name="code" data-tags="code" horiz-adv-x="768" d="M159 361l172-173-83-80-248 248 254 254 79-78zM609 357l-172 173 83 80 248-248-254-254-79 78z" />
<glyph unicode="&#xe926;" glyph-name="comment" data-tags="comment" d="M80 697h557c44 0 80-36 80-80v-338c0-44-36-80-80-80h-106l5-137c0-33-18-41-42-18l-157 155h-257c-44 0-80 36-80 80v338c0 44 36 80 80 80z" />
<glyph unicode="&#xe927;" glyph-name="comments" data-tags="comments" horiz-adv-x="768" d="M227 199l-130-87s27 72 29 124c-77 41-126 108-126 183 0 125 139 227 310 227 142 0 262-71 299-166-14 2-28 3-42 3h-14c-70-3-135-26-185-65-55-44-85-106-83-168 1-19 5-40 12-58-24 0-47 3-70 7zM708 72l-85 46c-17-4-37-7-55-8h-12c-109 0-197 63-200 143-4 83 86 154 200 158h11c109 0 198-61 201-142 2-49-28-93-77-123 2-35 17-74 17-74z" />
<glyph unicode="&#xe928;" glyph-name="compass" data-tags="compass" d="M358 718c198 0 359-161 359-359s-161-358-359-358-358 160-358 358 160 359 358 359zM358 84c152 0 276 123 276 275s-124 276-276 276-275-124-275-276 123-275 275-275zM417 301l-214-97 97 214 214 97zM242 242l155 78-78 78z" />
<glyph unicode="&#xe929;" glyph-name="cookpad" data-tags="cookpad" d="M358 718c198 0 359-161 359-359s-161-358-359-358-358 160-358 358 160 359 358 359zM358 38c177 0 322 144 322 321s-145 322-322 322-321-145-321-322 144-321 321-321zM462 520c-16 39-55 69-105 69-40 0-79-27-93-52-79 36-161-28-161-103 0-52 31-87 75-109-5-45-13-97-18-141-2-15-6-33 4-45 25-6 52-3 80-3h244c17 8 14 29 16 43 5 45 12 95 18 138 73-2 123 46 123 114 0 89-100 147-183 89zM433 491c0-9-6-11-6-18 9-6 20-14 32-18 10 30 44 57 85 51 40-5 66-46 63-85-3-33-34-66-82-67 3 20 4 41-15 42-20 0-22-31-25-58-4-29-5-57-8-74h-198c-28 0-57 4-53-24 3-16 29-13 53-13 62 0 135 2 193-1-2-18-4-37-7-53h-268c8 60 15 124 23 184-45 2-84 36-79 87 8 69 106 88 141 32 2 38 30 71 65 75 41 5 76-21 86-60z" />
<glyph unicode="&#xe92a;" glyph-name="copy" data-tags="copy" horiz-adv-x="696" d="M572 684l105-109c10-11 19-34 19-49v-323c0-15-12-29-28-29h-187v49h157c5 0 9 4 9 9v272c0 5-4 9-9 9h-116c-5 0-10 4-10 9v124c0 5-4 9-9 9h-190c-5 0-10-4-10-9v-69c-10 4-23 6-33 6h-15v93c0 16 13 28 28 28h242c15 0 37-9 47-20zM570 562h42c5 0 6 3 3 7l-48 49c-3 4-6 3-6-2v-45c0-5 4-9 9-9zM318 524l104-110c11-11 19-33 19-48v-323c0-16-12-29-27-29h-385c-16 0-29 13-29 29v473c0 15 13 29 29 29h241c15 0 37-10 48-21zM58 63h325c5 0 10 4 10 9v272c0 5-5 9-10 9h-116c-5 0-9 4-9 9v124c0 5-4 9-9 9h-191c-5 0-9-4-9-9v-414c0-5 4-9 9-9zM360 408l-47 51c-4 4-7 1-7-4v-44c0-5 5-9 10-9h41c5 0 7 3 3 6z" />
<glyph unicode="&#xe92b;" glyph-name="crop" data-tags="crop" d="M591 192h126v-65h-126v-126h-66v126h-399v399h-126v66h126v126h65v-126h374l74 73 35-35-83-83v-355zM191 218l309 308h-309v-308zM525 481l-288-289h288v289z" />
<glyph unicode="&#xe92c;" glyph-name="crown" data-tags="crown" horiz-adv-x="768" d="M384 521c-44 0-80 36-80 80 0 45 36 80 80 80s80-35 80-80c0-44-36-80-80-80zM65 554c35 0 63-29 63-64 0-36-28-64-63-64-36 0-65 28-65 64 0 35 29 64 65 64zM705 554c35 0 63-29 63-64 0-36-28-64-63-64-36 0-65 28-65 64 0 35 29 64 65 64zM135 112l-53 290c16 3 31 12 43 22 33-30 75-59 115-59 48 0 87 74 114 136 9-3 20-6 30-6s21 3 30 6c27-62 66-136 114-136 40 0 82 29 115 59 12-10 27-19 43-22l-53-290h-498zM124 87h520v-49h-520v49z" />
<glyph unicode="&#xe92d;" glyph-name="cut" data-tags="cut" d="M184 310h-4c-42 0-87-20-121-53-35-32-59-75-59-118 0-49 35-79 83-79 41 0 87 21 122 53 34 33 58 75 58 118 0 5 0 12-1 17l32 28 314-161c5-2 10-4 15-4 7 0 20 4 34 6 13 3 27 6 35 7 14 2 25 15 25 29 0 10-5 19-14 25l-261 181 261 181c9 6 14 15 14 25 0 14-11 28-25 30-4 0-9 1-15 3-12 3-28 5-40 7s-21 2-29-2c-2-1-8-4-19-9-10-5-23-12-38-20s-32-16-50-26c-18-9-39-19-57-29-38-19-75-38-103-52-14-7-26-14-35-18-8-4-12-7-12-7l-32 29c1 5 1 11 1 16 0 43-24 86-58 118-35 32-81 53-122 53-48 0-83-30-83-79 0-42 24-85 60-118 36-34 82-56 124-53 4-6 13-14 22-22s17-17 23-23v-8c-6-6-13-13-23-22-9-8-17-17-22-23zM74 579v3c3 1 6 1 9 1 24 0 50-15 67-29 8-7 18-19 25-31 8-12 15-26 15-37v-2c-5-1-8-1-10-1-24 0-48 15-66 30-7 7-18 17-26 29s-14 26-14 37zM219 303l41 40-2 48 365 186 64-12-380-262-17 9-40-36c-7 11-18 20-31 27zM232 403l-13 14c13 5 24 14 31 25l16-14c-15-7-28-11-34-25zM278 359c0-16 13-29 29-29 17 0 30 13 30 29 0 17-13 30-29 30-18 0-30-13-30-30zM338 288l77 53 272-188-64-12zM75 139c0 22 15 47 37 65s48 32 68 32c3 0 6-1 8-1v-2c1 0 1-1 1-2 0-22-15-46-37-64s-47-32-69-32h-4c-1 1-2 1-4 1v3z" />
<glyph unicode="&#xe92e;" glyph-name="dashboard" data-tags="dashboard" d="M105 60h506c9 0 18 4 23 11 27 30 47 68 61 107 14 40 22 82 22 122 0 98-40 187-105 253-66 66-155 105-254 105s-188-39-254-105c-65-66-104-154-104-253 0-40 8-82 22-122 14-39 33-77 61-107 5-7 12-11 22-11zM313 553c0 26 20 45 45 45s45-19 45-45c0-25-20-44-45-44s-45 19-45 44zM134 479c0 25 20 44 45 44s45-19 45-44-20-45-45-45-45 20-45 45zM493 479c0 25 20 44 45 44 26 0 45-19 45-44s-19-44-45-44c-25 0-45 19-45 44zM355 254l52 186c3 9 11 16 22 16s22-10 22-21c0-2-2-7-4-16-3-10-5-22-9-34-3-13-7-28-11-42-9-31-18-60-23-80-3-10-5-19-6-22 20-14 35-36 35-61 0-42-33-75-75-75s-74 33-74 75c0 19 7 38 20 51s32 22 51 23zM60 300c0 25 19 44 44 44s46-19 46-44-21-45-46-45-44 20-44 45zM567 300c0 25 20 44 45 44s44-19 44-44-19-45-44-45-45 20-45 45z" />
<glyph unicode="&#xe92f;" glyph-name="delicious" data-tags="delicious" horiz-adv-x="665" d="M303 384h-303v303h303v-303zM655 384h-303v303h303v-303zM272 656h-241v-242h241v242zM303 32h-303v303h303v-303zM352 32v303h303v-303h-303zM399 304h-16v-16zM440 304l-57-57v-41l98 98h-41zM522 304l-139-139v-41l180 180h-41zM383 62h19l223 222v20h-21l-221-221v-21zM484 62l141 141v40l-182-181h41zM566 62l59 59v41l-100-100h41zM607 62h18v18z" />
<glyph unicode="&#xe930;" glyph-name="down" data-tags="down" d="M356 349l246 246 115-119-355-354-362 362 112 113z" />
<glyph unicode="&#xe931;" glyph-name="dribbble" data-tags="dribbble" d="M358 718c198 0 359-161 359-359s-161-358-359-358-358 160-358 358 160 359 358 359zM358 665c-25 0-48-3-71-9 4-5 61-82 113-178 116 43 160 110 160 111-53 48-124 76-202 76zM227 636c-85-40-149-119-168-213 7-1 136-2 282 37-52 94-110 171-114 176zM595 554c-1-1-50-72-171-121 7-15 14-30 20-45 2-5 6-10 8-15 104 13 208-10 213-11-1 73-27 140-70 192zM52 359c0-79 30-151 79-205 0 0 83 150 249 203 4 1 8 2 11 3-7 17-15 35-24 52-158-47-309-44-315-44v-9zM529 105l1 1c69 46 117 120 130 205-6 2-92 28-190 13 40-111 56-201 59-219zM477 78h1c-5 27-22 120-65 232-1 0-1-1-2-1-174-60-236-181-240-190l6-7c51-37 113-59 181-59 42 0 83 9 119 25z" />
<glyph unicode="&#xe932;" glyph-name="dropdown" data-tags="dropdown" horiz-adv-x="614" d="M602 506l-253-317c-24-29-61-29-84 0l-253 317c-24 30-12 53 25 53h540c38 0 49-23 25-53z" />
<glyph unicode="&#xe933;" glyph-name="edit" data-tags="edit" horiz-adv-x="757" d="M558 152v129l80 80v-235c0-47-39-86-85-86h-468c-47 0-85 39-85 86v467c0 47 38 86 85 86h475v-1l-80-79h-368c-17 0-32-15-32-33v-414c0-18 15-32 32-32h414c17 0 32 14 32 32zM634 640l85-85 39 39-85 85zM335 340l84-85 271 271-84 85zM275 196l116 31-85 85z" />
<glyph unicode="&#xe934;" glyph-name="eject" data-tags="eject" horiz-adv-x="665" d="M13 326l274 343c26 31 66 31 91 0l274-343c26-32 14-57-27-57h-585c-40 0-53 25-27 57zM50 18h565c28 0 51 22 51 51v67c0 28-23 50-51 50h-565c-28 0-50-22-50-50v-67c0-29 22-51 50-51z" />
<glyph unicode="&#xe935;" glyph-name="etc" data-tags="etc" d="M176 359c0 48-40 88-88 88-49 0-88-40-88-88s39-88 88-88c48 0 88 40 88 88zM446 359c0 48-40 88-88 88s-88-40-88-88 40-88 88-88 88 40 88 88zM717 359c0 48-39 88-88 88-48 0-88-40-88-88s40-88 88-88c49 0 88 40 88 88z" />
<glyph unicode="&#xe936;" glyph-name="evernote" data-tags="evernote" horiz-adv-x="617" d="M65 563h69c15 0 28 13 28 28 0 0-1 14-1 31v44c0 13 3 24 9 32 8 12 23 20 37 24 16 5 82 9 125-8 16-6 31-27 34-47 25 1 65 1 100-3 44-5 78-11 95-17 16-5 34-20 39-49 9-50 21-250 15-317-10-104-25-167-32-187-33-103-62-107-143-107-102 0-134 16-134 99 0 91 43 93 116 91 10-1-1-11-1-29 0-17 7-24-3-24-20 0-49 3-49-26 0-35 17-34 61-34 55 0 66 8 66 58 0 82-23 94-56 98-35 4-70 9-87 15-42 15-39 72-39 87 0 3-4 2-4 0 0-23-1-53-13-89-3-10-6-16-6-16-13-29-36-18-72-14-36 5-111 20-145 34-14 7-20 14-28 30-19 41-40 175-43 194-3 25-3 36-3 36 0 16 2 31 11 44 4 6 11 12 20 16 8 3 20 6 34 6zM131 583h-70c-16 0-31-3-43-8 0-1-4-3-7-4l1 1 134 133h1l-2-4c-5-9-8-22-8-35 0-17 1-75 1-75 0-4-3-8-7-8zM460 377c18 0 36-5 49-11 0 20-4 53-37 54-30 1-39-24-41-44 9 1 19 2 29 1z" />
<glyph unicode="&#xe937;" glyph-name="exchange" data-tags="exchange" horiz-adv-x="798" d="M696 216h81c24 0 28-14 11-30l-118-119c-10-11-29-11-40 0l-119 119c-16 16-12 30 12 30h81v294c-4 41-38 72-80 72-43 0-78-33-80-75v-296c-3-62-40-117-92-145-24-12-50-18-79-18s-54 6-78 18c-53 28-91 83-93 146v290h-80c-24 0-29 13-12 29l118 119c11 11 30 11 40 0l119-119c17-16 12-29-12-29h-80v-291c2-42 35-76 78-76s79 36 79 79v293c3 63 39 116 92 144 24 12 51 19 80 19s55-7 80-19c51-27 87-79 92-140v-295z" />
<glyph unicode="&#xe938;" glyph-name="external" data-tags="external" horiz-adv-x="665" d="M501 599l-334-336 70-71 335 335 62-61c17-17 32-12 32 14v181c0 16-14 31-31 31h-181c-26 0-32-15-15-32zM538 134v227h76v-253c0-45-37-82-82-82h-450c-45 0-82 37-82 82v451c0 45 37 82 82 81h277v-76h-251c-16 0-31-15-31-31v-399c0-16 15-31 31-31h399c16 0 31 15 31 31z" />
<glyph unicode="&#xe939;" glyph-name="facebook" data-tags="facebook" horiz-adv-x="665" d="M38 692h590c20 0 38-18 38-38v-590c0-20-18-38-38-38h-590c-20 0-38 18-38 38v590c0 20 18 38 38 38zM473 318h92l4 88h-96v65c0 25 5 39 37 39h56l2 82s-25 4-61 4c-88 0-127-55-127-114v-76h-65v-88h65v-244h93v244z" />
<glyph unicode="&#xe93a;" glyph-name="file" data-tags="file" horiz-adv-x="596" d="M430 690l141-148c14-15 26-43 26-65v-438c0-20-16-38-38-38h-521c-20 0-38 18-38 38v641c0 20 18 38 38 38h328c22 0 50-13 64-28zM79 67h439c7 0 13 6 13 13v366c0 7-6 13-13 13h-157c-7 0-13 6-13 13v167c0 7-5 12-12 12h-257c-7 0-12-5-12-12v-559c0-7 5-13 12-13zM487 534l-63 68c-5 5-9 3-9-4v-61c0-6 6-12 12-12h56c7 0 9 4 4 9zM156 592h124c13 0 25-12 25-26v-15c0-13-12-25-25-25h-124c-14 0-26 12-26 25v15c0 14 12 26 26 26zM156 458h124c13 0 25-12 25-26v-15c0-13-12-25-25-25h-124c-14 0-26 12-26 25v15c0 14 12 26 26 26zM439 258h-283c-14 0-26 11-26 25v15c0 14 12 25 26 25h283c13 0 26-11 26-25v-15c0-14-13-25-26-25zM439 121h-283c-14 0-26 11-26 24v16c0 14 12 25 26 25h283c13 0 26-11 26-25v-16c0-13-13-24-26-24z" />
<glyph unicode="&#xe93b;" glyph-name="firefox" data-tags="firefox" horiz-adv-x="798" d="M444-11h-1c-1-1-1-2-2-2-3-6-10-10-17-10-17 1-37 2-55 5-2 0-5 1-7 1-3-3-8-5-13-5h-3c-23 4-48 12-72 22-19 8-37 16-53 26-57 30-107 74-144 128-27 37-46 80-57 124-9 1-16 9-16 17-1 13-2 27-2 40 0 19 1 39 3 56-4 4-6 10-5 16 4 35 15 70 29 102 5 13 11 25 18 36-1 8-1 15-1 23 0 42 14 82 42 114 3 4 8 6 14 6h6c7-2 12-8 13-15 2-14 7-28 15-39 67 67 159 107 260 107 60 0 117-14 167-40 43-16 82-41 114-74 1 2 2 5 4 6 3 4 8 6 13 6 4 0 9-1 12-3 22-16 40-40 52-69 13-29 21-61 23-96 0-4 1-8 1-13 6-2 12-8 13-15 3-15 4-32 4-47 0-50-11-98-34-142-2-6-4-13-6-18 4-4 7-9 7-15v-3c-6-48-48-101-106-137-6-4-12-8-18-11 1-6-1-12-5-16-31-34-89-57-157-64-12-1-25-1-36-1zM574 238l-21-28c-4-3-9-5-13-7-1 0-2 0-3 1-3 3-2 10 1 17-4-3-10-7-15-11-10-8-18-17-24-25-3-1-7-2-10-2 3 3 6 6 8 10-18-9-43-15-67-15h-4c-6 1-12 1-17 2-19 3-39 9-56 18 0 0-1 0-2 1 5 1 10 1 15 1s9 0 13-1c-9 4-21 8-33 8h-5c-1 0-1 0-2-1-47 28-83 72-88 119-3 27 0 50 12 73-7 1-14 2-22 2-12 0-25-2-36-5-5-1-8-2-11-3-1 3-4 6-5 9 16 6 35 9 52 9 10 0 20-1 29-2 1-1 3-1 4-1l1-1h5c0-1 0-1 1-1s2 0 3-1h1c1 0 2-1 3-1h1c1-1 2-1 3-1 0-1 1-1 1-1 1 0 2-1 3-1 0 0 1 0 1-1 1 0 2 0 3-1h1c2-1 3-1 4-2 3 7 4 15 4 23v3c0 8-2 16-5 23-2 4-5 9-7 13-12 19-18 42-18 68 0 47 23 90 60 116-5 0-10 1-14 1-37 0-69-17-89-45-12 3-34 5-45 5-48 0-91-22-120-58-10-13-19-28-25-43-13-30-24-63-28-98 4 12 10 24 16 34-8-28-12-63-12-103 0-12 0-26 1-38 1 16 4 32 6 45 11-131 89-243 202-299 14-9 33-18 51-26 24-9 47-16 67-19-10 4-21 9-31 14 5-1 11-2 17-3 11-3 24-6 37-8 18-3 36-4 52-4-5 2-11 4-17 7 12 1 24 2 35 3h2c11 0 23 1 34 2 65 6 119 29 146 58-14-7-32-13-50-17 16 9 34 20 48 31 9 5 19 10 28 16 55 34 92 82 98 124-8-14-21-29-38-42 15 26 29 53 38 82 20 41 31 87 31 135 0 15-1 30-3 44v-6c0-22-4-41-11-58-1 15-2 32-4 46 2 15 3 32 2 48-4 67-31 121-69 150 19-20 32-51 32-86 0-3 0-5-1-8-38 85-116 150-210 169 53-27 98-70 127-122-19 18-43 34-71 41 46-42 76-101 78-169 0-8 0-17-1-25-7 18-20 34-33 47 4-22 8-44 8-69 1-35-3-68-10-99-3 15-7 30-12 42 0-4 0-8-1-11-2-36-12-68-26-92zM102 669c-24-28-37-62-37-101v-2l4 4s1 1 1 2c2 1 3 2 4 3l1 1s2 2 4 3v1c2 1 3 2 5 4 2 1 3 3 5 4v1c5 3 11 7 16 10 8 4 17 8 26 12-3 2-5 5-8 8 0 1 0 1-1 2 0 0 0 1-1 1 0 1-1 1-1 2l-1 1c0 1-1 2-1 2 0 1-1 2-1 3l-1 1c0 1-1 1-1 2s-1 2-1 2c0 1-1 2-1 2 0 1-1 1-1 2s0 1-1 2v1c-1 1-1 2-1 2-1 1-1 1-1 2s-1 1-1 2v1c-1 1-2 3-2 4 0 0-1 0-1 1v2c-1 1-1 1-1 2v2l-1 1v3c0 0 0 1-1 1v4zM390 525c-1 15-47 11-65 11-9 0-19 5-26 10-1-6-2-14-2-20 0-20 5-41 15-58 3-4 5-8 7-12 16 11 40 23 48 29 13 10 24 24 23 40zM426 334c-47 0-47-21-90-21-22 0-51 11-68 38 0-7 0-16 1-24 4-32 26-65 58-90 20 1 42 6 53 10 30 10 53 33 70 39 7 3 21-5 28 9 6 11-20 39-52 39z" />
<glyph unicode="&#xe93c;" glyph-name="flag" data-tags="flag" horiz-adv-x="642" d="M108 19v565c23 14 35 36 35 62 0 39-32 72-71 72-40 0-72-33-72-72 0-26 14-48 37-62v-565c0-10 7-18 16-18h37c10 0 18 8 18 18zM143 552v-324c0-19 10-27 22-18 23 17 43 30 61 39 37 17 63 25 87 26 30 0 53-6 76-17 22-10 42-26 65-41 13-8 29-13 47-14 30-2 72 5 121 45 11 9 20 32 20 49v324c0 19-8 26-20 17-25-19-48-32-68-38-41-11-73-9-100 7-23 15-43 31-65 41-23 11-46 17-76 17-11 0-25-3-40-7-27-8-62-25-108-57-12-9-22-31-22-49z" />
<glyph unicode="&#xe93d;" glyph-name="flickr" data-tags="flickr" horiz-adv-x="665" d="M84 692h498c47 0 84-37 84-84v-498c0-25-10-44-25-59-14-14-36-25-59-25h-498c-47 0-84 37-84 84v498c0 23 11 45 25 59 15 15 34 25 59 25zM195 249c62 0 113 50 113 112s-51 113-113 113c-61 0-113-51-113-113s52-112 113-112zM471 249c61 0 113 50 113 112s-52 113-113 113c-62 0-114-51-114-113s52-112 114-112z" />
<glyph unicode="&#xe93e;" glyph-name="folder" data-tags="folder" d="M380 560h305c17 0 32-15 32-32v-423c0-17-15-31-32-31h-653c-17 0-32 14-32 31v423c0 17 15 32 32 32h34l16 53c0 17 15 32 32 32h218c17 0 32-15 32-32z" />
<glyph unicode="&#xe93f;" glyph-name="foursquare" data-tags="foursquare" horiz-adv-x="665" d="M356 168l156 155c11 11 12 29 3 42l151 127v-466h-666v666h554l-154-212-44 44c-12 12-33 12-45 0l-9-9c-25 40-70 66-120 66-78 0-140-62-140-140 0-76 60-137 135-140l134-133c12-13 33-13 45 0zM326 256l-86 68c24 12 44 32 57 56 15-20 26-34 27-35 1-2 4-4 7-4s6 1 9 5l252 346h74v-160l-329-277c-2-1-4-2-5-2-4 0-6 3-6 3zM182 551c60 0 110-49 110-110 0-60-50-109-110-109s-109 49-109 109c0 61 49 110 109 110z" />
<glyph unicode="&#xe940;" glyph-name="forward" data-tags="forward" horiz-adv-x="768" d="M494 668v-124c-530 0-493-494-493-494 104 345 493 245 493 245v-127l274 254z" />
<glyph unicode="&#xe941;" glyph-name="friend" data-tags="friend" horiz-adv-x="818" d="M552 215c41-23 64-61 60-100-2-24-1-24-32-28-19-2-140-3-263-3-140 0-286 1-297 4-41 11-17 87 37 123 43 27 130 69 154 74 33 7 37 28 0 91-8 15-17 58-18 104-1 74 12 124 77 149 12 4 26 6 39 6 43 0 83-24 100-59 23-47 12-170-12-215-29-51-26-67 6-75 20-5 86-36 149-71zM771 278c32-17 50-48 47-78-1-18-1-19-25-22-12-2-75-3-149-3-13 31-38 59-72 77-39 22-85 45-120 60 23 11 43 20 52 22 25 6 28 20 0 70-7 12-15 46-16 82-1 58 12 98 62 117 10 3 21 5 31 5 33 0 64-18 77-46 17-37 9-133-9-169-22-40-20-52 5-58 16-4 67-29 117-57z" />
<glyph unicode="&#xe942;" glyph-name="frustrate" data-tags="frustrate" d="M358 708c198 0 359-155 359-349s-161-349-359-349-358 155-358 349 160 349 358 349zM120 397l8-21c3-7 11-12 19-9l175 63c7 3 9 8 10 21 2 13 0 19-7 23l-160 92c-7 4-17 2-21-5l-11-20c-4-7-2-16 5-20l108-62-117-42c-7-3-11-12-9-20zM589 376l8 21c2 8-2 17-9 20l-117 42 108 62c7 4 9 13 5 20l-12 20c-4 7-13 9-20 5l-160-92c-7-4-9-10-7-23 1-13 3-18 10-21l174-63c8-3 17 2 20 9zM530 151c20 7 31 32 24 52-32 81-109 133-196 133s-163-52-195-133c-7-20 3-45 23-52 20-8 325-8 344 0z" />
<glyph unicode="&#xe943;" glyph-name="full" data-tags="full" horiz-adv-x="665" d="M338 434l70-69c4-4 8-6 14-6 5 0 9 2 13 6l119 118 72-72c23-22 40-13 40 18v226c0 19-16 37-38 37h-226c-32 0-40-17-17-40l72-72-119-118c-3-4-5-9-5-14 0-6 2-10 5-14zM0 290v-227c0-19 16-37 38-37h225c32 0 41 17 18 40l-72 72 119 119c3 4 5 8 5 14 0 5-2 9-5 13l-70 70c-4 3-8 5-14 5-5 0-10-2-14-5l-118-119-72 72c-23 22-40 14-40-17z" />
<glyph unicode="&#xe944;" glyph-name="game" data-tags="game" d="M143 610v72h72v-72h-72zM502 682h71v-72h-71v72zM645 467v143h72v-287h-72v-71h-72v-72h72v-72h72v-71h-144v71h-71v72h-287v-72h-72v-71h-143v71h72v72h71v72h-71v71h-72v287h72v-143h71v71h72v72h72v-72h143v72h72v-72h71v-71h72zM287 395v72h-72v-72h72zM502 395v72h-72v-72h72z" />
<glyph unicode="&#xe945;" glyph-name="gear" data-tags="gear" d="M649 575l-68-69c18-28 31-60 37-94h99v-106h-99c-6-34-19-65-37-93l68-70-75-75-69 69c-28-18-59-32-93-38v-98h-107v98c-34 6-65 20-93 38l-70-69-74 75 68 70c-18 28-32 59-38 93h-98v106h98c6 34 20 66 38 94l-68 69 74 75 70-69c28 18 59 32 93 38v99h107v-99c34-6 65-20 93-38l69 69zM358 211c82 0 149 66 149 148s-67 149-149 149-147-67-147-149 65-148 147-148z" />
<glyph unicode="&#xe946;" glyph-name="geo" data-tags="geo" d="M358 718c198 0 359-161 359-359s-161-358-359-358-358 160-358 358 160 359 358 359zM383 207v-115c129 11 232 115 243 243h-114v47h114c-10 130-114 233-243 244v-115h-47v115c-130-10-235-114-245-244h116v-47h-116c11-129 115-233 245-244v116h47z" />
<glyph unicode="&#xe947;" glyph-name="github" data-tags="github" horiz-adv-x="768" d="M754 216l-2-8c-3-8-7-16-10-24 0-2-2-6-3-8-32-71-92-105-185-122-5-1-14-3-23-4-90-11-158-13-248-5-3 0-7 1-9 1-125 14-199 59-238 131-1 1-3 4-4 8-4 7-7 16-10 23-2 4-3 6-4 9-13 37-18 80-18 128 0 84 26 117 61 162-27 96 11 162 11 162s57 12 165-65c58 25 213 27 287 5 45 30 128 72 162 60 8-14 27-56 11-149 11-20 71-64 71-187-1-45-6-84-14-117zM99 245c0-111 78-160 187-169 7-1 14-1 22-2 51-1 115-2 178 0 14 1 28 2 41 4 104 15 147 75 147 159 0 61-28 141-140 141-8 0-74-8-137-8-71 0-144 8-155 8-115 0-143-91-143-133zM231 296c22 0 39-26 39-58s-17-58-39-58-38 26-38 58 16 58 38 58zM554 180c-23 0-40 26-40 58s17 58 40 58c22 0 39-26 39-58s-17-58-39-58zM388 152c-10 0-18 9-18 19 0 9 8 17 18 17s19-8 19-17c0-10-9-19-19-19zM389 92c-29 0-52 25-52 40 0 6 4 11 10 11s10-5 10-11c1-3 14-20 32-20 14 0 27 12 27 20 0 6 5 11 10 11 6 0 11-5 11-11 0-18-20-40-48-40z" />
<glyph unicode="&#xe948;" glyph-name="globe" data-tags="globe" d="M610 612c66-66 107-156 107-253 0-98-41-186-107-252s-155-106-252-106c-98 0-186 40-252 106s-106 154-106 252c0 97 40 187 106 253s154 106 252 106c97 0 186-40 252-106zM399 157h2c3 0 6-1 8-4 2-2 4-4 8-4 1 0 2 1 2 3 0 4 1 8 1 9 1 3 3 3 5 3 1 0 1 0 1 2l-2 2c-1 0-2-1-2-2-1-1-2-2-3 0l-6-4-7 2-12 18 4 26c0 1-1 3-4 4s-3 3-2 4c-4 2-9 4-15 4-1 0-4-1-9-2-5 0-8 0-8 2 0 3 3 9 5 16 1 3 2 8 3 10 0 2 1 4 1 4l5 12-1 2-7 1c-2 0-9-4-14-8-5-6-9-11-9-15l-20-4c-4 0-8 1-11 5-1 5-4 11-8 17-4 5-5 10-5 15 0 6 1 14 3 19 2 6 2 13-2 19 1 0 4 2 2 4l5 6 1 1 1-1c4 3 11 4 17 3 7-1 11 2 13 7l7-7c2-1 6 6 6 8l-3 2 18 4 1-2h8l10-6c1 0 2 1 3 2 2 2 3 2 4 1l9-10c-1-2-1-4-1-6 1-1 2-2 2-3 0-4 9-22 14-22 3 0 4 2 3 6v8c0 5-1 11-3 17-3 5-5 12-7 18v2c0 3 2 6 6 8 3 2 5 4 5 4 3 2 6 5 10 7 3 2 6 7 8 10l3 7v4h3s2 1 2 3c0 0-1 1-2 1-1 1-4 3-6 5l2 2c3 3 4 10 2 13l8 4c-2-4 4-5 6-4l4 9c-2 5-3 0 0 6 3 1 6 2 9 4 3 1 5 2 8 2 1 0 2-1 2-1 2 0 3 1 3 1 0 3-1 5-2 5l5 11c4 0 8 2 10 6l8 1c2 0 3 1 3 3v2l15 4 2 5-4 6s1 1 1 2-1 2-2 3c-1 0-2 1-3 1-1 1-2 2-3 2h8s4 1 4 4c0 4-2 5-6 5-11 0-28-4-34-16l-6-3 8 8 1 2c0 1-1 2-3 3h-3c10 0 16 3 20 6 3 3 6 6 13 8 7-1 14-1 21-1 6 1 12 1 19 1 3 2 7 6 9 10l10 1c2-2 9 3 9 6s-1 4-4 5-6 3-6 6v3c1 1 0 2-1 2-4 0-14-5-17-7-2-2-3 1-3 3l1-1 4 2 10 4 1 1c0 4-6 5-8 5-1 0-3-1-5-2-2 0-4 0-4 2l1 2c-7 5-13 15-13 18v4c1 1 0 1-2 1h-3c-1-1-2 0-2 2s-4 13-9 13l-3-3c0-2-1-3-3-4s-3-2-3-3h-1l-10-6c0 2-1 2-2 1-1 0-1-1-3-1h-2c5 0 4 7 0 7l-8-1c-2 0-2 0 0 2 1 2 3 4 1 6 0 2-1 2-2 1l2 3c2 1-1 5-3 7l-9 1-6 6c-1-1-2 0-4 1-1 1-3 3-4 3l-7-3-18 4c-2 0-5-1-5-4 0-1 0-2 1-2 2-1 2-2 2-3s1-5 2-10c0-5 0-7-3-6l-4-6c0-2 2-3 3-3 3-2 6-5 8-8 2-2 2-5 1-8l-19-15v-1c0-3 0-5 1-7 2-2 2-5 4-8 5-2 5-4 1-6-2 0-4-1-6-2l-2-2c0-1-1-1-2-1h-5s0 1 1 1c0 0 1 1 1 2l-9 5-4 7c1 3 1 5 0 6s-1 3-1 5-2 7-6 7c-5 0-9-1-14-2 2 1-2 6-3 6-5 0-11 2-18 6s-12 6-16 6c-3 0-9-1-13-3 2 1 2 2 3 5l-6 10-1 1c-2 0-4-1-6-3-2-1-5 0-5 4 0 1 1 2 1 2 1 1 1 1 0 2 0 3 1 6 4 9 2 2 3 6 4 9 2 1 2 2 2 3 0 2 1 2 2 2 2 0 5 1 7 2 2 2 4 3 7 3l1 3c0 1-3 2-9 3-7 1-10 1-10 3l1 1c6-2 11-3 14-3 6-1 9 1 15 4 2 1 8 3 13 6 0 1-1 1-4 2h4l7 4v4l-2 2 10 2c-1 2 1 3 2 3 2 0 4-1 6-3s3-2 4-2l9 3c0 1 1 1 3 1 2 1 3 2 2 3l-7 7c-2 0-3 3-1 3 3 0 5 1 3 4-2 1-5 3-8 4-3 2-6 3-9 3-2 0-6-1-6-4 0-2 1-2 2-2 2 0 3-1 3-2 2-1 1-2-1-2h-2c-2 0-5-2-7-6-2-3-5-6-8-7-1 0-1 0-1 1 1 1 0 1 0 2-1 1-2 2-3 2-2 1-4 1-4 2 0 2 2 3 4 6 1 3-2 4-7 4-2 0-4-1-5-3-1-1-2-3-3-5l-10 11-8 1c0 2 1 4 2 6 2 4-6 9-9 12-1 0-3 1-5 1-1 0-7-5-11-7-2-1-3-2-3-3 0-2 2-2 5-2h-1c-2 0-3-1-3-4 0-1 8-3 10-3s4 0 4-1c1-1 1-1 3-1l3 1v-2s-1-2-1-2l1-3-10-5-1-1c-1 0-2 0-2-1s0-3 2-5c1-2 0-3-5-3l-3 2c0 2-2 4-7 6-9 3-25 4-39 4-7 1-12 1-16 1l-15-5 4-8c-1 0-3-1-3-1-4 3-10 9-12 9l-7 1c-22-1-48-22-73-47s-47-53-58-70h2c2 0 3 1 6 2 2 1 3-1 3-4 0-2 0-3-1-5s1-3 5-3c1 0 2 1 2 3 1 2 1 2 1 0l2-7v-1c0-1-1-2-2-3-3-1 0-4 3-4h5l2 1 1 1c0-4 4-5 7-5h1s-1-2-2-3c-2 0-2-1 0-2l10-2v-1l6-13c0-2-2-7-4-7s-2 1-2 2c1 0 1 1 1 3 0 1-1 2-1 3-1 1-3 1-7 1-1 0-4 0-2-3l5-11 2-2c-6 0-7-20-7-26l1-8 1-3v-1l-1-9 12-20h3c0-1 0-2-1-3s-1-2-1-4l4-3c0-6 2-7 7-12 0-3 4-7 10-11 7-3 11-5 13-6 4-14 11-29 21-38l1-6-2-2c-2 0-2-1-1-2l8-4c2 2 3 0 5-3 2-4 3-6 4-7v-3l5-7 2-2 2 5c-2 5-9 16-15 25-3 5-6 10-9 14-2 3-3 5-3 6s-1 12-2 14c1-1 4-2 6-3 3-1 6-2 8-3 1-8 4-14 9-19 4-4 8-9 11-15-2-2 2-2 4-2 1-2 1-3 1-7 9-9 27-30 27-39v-1l-2-6c4-9 13-16 22-19h2c5-3 12-6 19-9 6-4 12-7 18-9l10 6c5-1 11-6 18-12s16-13 28-15c4 3 6 2 6-2v-2l11-13 2-6c6-4 13-10 16-17zM270 660l-1 2c-2 1-7 3-9 3-1 0-3-1-7-2-7-4-18-7-26-11-4-2-7-3-9-3 4 0 8 1 12 3 3 2 7 3 11 3l3-2c2-1 3-1 5-1 1 0 2 0 4-2 2 1 4 1 7-1l3 2v4l-1 2 2-1c2 0 4 1 6 4zM421 74l1-6c0-2-1-2-2-4-3-2-8-5-8-11 0-1 1-2 1-4 1-1 2-2 2-4 0-1-1-2-1-3 69 12 131 45 179 96h-1c-2-1-5-1-6 0l-3-1-5 1h-3c-2 3-4 5-7 7l-1 1c-1 0-2 0-2-2 0 9-7 17-15 17 0-1-1-1-1-1h-2l-2 1h3l2 6-5 3-1-1c-4 1-7 3-9 7l-3 1v-1l-2-1c-4-1-7-2-9-3-4 1-7 3-8 4l-12-1c0 4-2 9-7 9-6 0-14 0-16-7 0-2 1-5 2-6v-4l-1-2-1-1h-1l-3 7 3 4c-1 2-1 3-1 5s-1 3-1 5l-1 1h-3l-6-4h-4l-1-2c-1 0-1-1-1-2 0 0-1 0-1-1l-1 1h-4c-2-2-3-5-4-8l2-2-5-2-1-2-3-2v-1h-1v-5h-1c-1 4-4 8-10 11h-3v-2c0-2 2-3 4-4 2-2 3-4 4-5-1 1-3 0-3-1v-2l6-9v-17l2-4c-2-5-4-10-7-13v1l-2-1-1-1-1-4 1-1v-1l-2 2-1-6-5-2c-2-1-3-2-2-5 0-2-1-3-3-4l1-2-2-3c0-1 0-2-1-2v-4l1-7 2-1 2 1z" />
<glyph unicode="&#xe949;" glyph-name="good" data-tags="good" horiz-adv-x="665" d="M505 134v-37h109v-70h-371s-59 45-59 45v319s82 61 118 136c36 76 34 164 34 164h94s4-72 0-129c-5-58-24-129-24-129h260v-82h-161v-37h161v-73h-161v-36h130v-71h-130zM0 77h142v308h-142v-308z" />
<glyph unicode="&#xe94a;" glyph-name="google" data-tags="google" horiz-adv-x="655" d="M82 687h491c45 0 82-37 82-82v-82h-102v102h-51v-102h-103v-51h103v-103h51v103h102v-359c0-45-37-81-82-81h-196c1 6 1 12 1 18 0 68-14 102-86 155-20 15-66 46-66 68 0 25 7 37 45 67s66 70 66 119c0 53-23 100-64 124h59l50 53h-222c-63 0-122-27-160-67v36c0 45 37 82 82 82zM248 454c10-78-25-129-84-127-60 2-117 57-127 136s30 138 89 137c60-2 112-67 122-146zM0 163v177c29-29 70-46 121-46 7 0 14 0 21 1-7-13-12-29-12-44 0-26 15-41 33-58h-41c-46 0-88-12-122-30zM309 32h-227c-39 0-72 26-80 63 27 42 84 73 150 72 20 0 40-5 57-10 48-34 88-54 97-93 2-7 3-15 3-23v-9z" />
<glyph unicode="&#xe94b;" glyph-name="graph" data-tags="graph" d="M0 58h717v56h-661v546h-56v-602zM98 168h616v442l-130-119-121 44-128-146-131 47-106-110v-158z" />
<glyph unicode="&#xe94c;" glyph-name="group" data-tags="group" horiz-adv-x="818" d="M669 207c42-23 66-64 63-105-2-25-3-26-35-30-20-3-146-4-276-4-147 0-301 3-312 6-44 11-20 91 38 129 45 29 137 73 162 78 34 7 38 28 0 96-9 15-19 61-20 109-1 78 14 131 82 157 14 5 28 7 41 7 45 0 87-25 104-62 25-49 15-180-11-227-30-53-27-70 6-79 22-6 90-38 158-75zM125 237c-16-11-31-25-43-39-38 0-67 1-70 2-25 6-11 52 22 72 25 16 76 41 90 44 18 4 22 15 0 53-5 8-11 34-11 61-1 44 8 74 46 87 32 12 68-3 81-30 13-28 6-100-8-126-16-31-13-39 5-44 4-1 12-5 23-10-44-18-104-51-135-70zM783 275c24-13 37-35 35-58-1-14-1-15-19-17-5-1-28-2-58-2-13 17-31 33-53 44-41 24-91 50-128 66 10 4 19 7 23 8 19 4 22 15 0 53-4 8-11 34-11 61-1 44 7 74 45 87 33 12 69-3 81-30 13-28 8-100-6-126-16-31-14-39 3-44 12-4 50-22 88-42z" />
<glyph unicode="&#xe94d;" glyph-name="hatena" data-tags="hatena" horiz-adv-x="819" d="M397 660c-17-6-91-33-94-34-2 1-76 28-93 34 17 6 91 32 93 33 3-1 77-27 94-33zM609 660c-17-6-91-33-93-34-3 1-77 28-94 34 17 6 91 32 94 33 2-1 76-27 93-33zM295 579c-17-6-92-31-94-32-2 1-76 26-93 32 17 6 91 32 93 33 2-1 77-27 94-33zM410 547c-2 1-77 26-94 32 17 6 92 32 94 33 3-1 77-27 94-33-17-6-91-31-94-32zM618 547c-2 1-77 26-94 32 17 6 92 32 94 33 2-1 77-27 94-33-17-6-92-31-94-32zM410 605l-48-16s-14-6-26-10c13-5 71-24 74-26 4 2 60 21 74 26-15 5-70 25-74 26zM93 531c3 0 77-27 94-33-17-6-91-31-94-32-2 1-76 26-93 32 17 6 91 33 93 33zM304 531c3 0 77-27 94-33-17-6-91-31-94-32-2 1-76 26-93 32 17 6 91 33 93 33zM517 531c2 0 77-27 94-33-17-6-92-31-94-32-2 1-76 26-93 32 17 6 91 33 93 33zM726 531c2 0 76-27 93-33-17-6-91-31-93-32-3 1-77 26-94 32 17 6 91 33 94 33zM19 498c0 0 70-24 74-25 4 1 52 17 75 25-23 8-71 25-75 27-4-2-73-27-73-27h-1zM230 498c23-8 71-24 74-25 4 1 52 17 75 25-23 8-71 25-75 27-3-2-51-19-74-27zM651 498c23-8 71-24 75-25 4 1 72 24 74 25-2 1-70 25-74 27-4-2-52-19-75-27zM103 416c17 6 92 31 95 32 2-1 76-26 93-32-17-6-91-32-93-33-3 1-78 27-95 33zM501 416c-17-6-92-32-94-33-2 1-77 27-94 33 17 6 92 31 94 32 2-1 77-26 94-32zM528 416c17 6 92 31 94 32 3-1 77-26 94-32-17-6-91-32-94-33-2 1-77 27-94 33zM198 390c3 1 50 18 73 26-23 8-70 24-73 25-4-1-51-17-74-25 23-8 70-25 74-26zM407 441c-3-1-51-17-74-25 23-8 71-25 74-26 3 1 50 18 73 26-23 8-70 24-73 25zM622 390c3 1 50 18 73 26-23 8-70 24-73 25-3-1-51-17-74-25 23-8 71-25 74-26zM316 309c17 6 92 33 94 33s76-27 93-33c-17-6-91-32-93-33-2 1-77 27-94 33zM367 199h-32v-47h-18v-26h18v-101h32v101h18v26h-18v47zM41 197h-34v-172h34v76h71v-76h32v172h-32v-64h-71v64zM579 153h-31v-128h31v51c0 12 1 21 1 24 2 8 5 14 10 19 4 4 9 6 15 6 5 0 9-2 12-4s6-7 8-12c1-5 2-14 2-29v-55h30v82c0 14-3 26-10 33-9 8-20 13-32 13-6 0-12-2-17-4-6-2-12-6-19-12v16zM265 140v12h32v-127h-32v14c-10-8-24-14-38-14-35 0-63 29-63 64 0 36 28 63 63 63 14 0 28-4 38-12zM494 64h27c-5-13-16-26-25-30s-20-9-32-9c-18 0-34 7-46 19-12 11-18 27-18 45s6 33 18 45 27 18 45 18 34-6 46-18c12-11 17-28 17-48v-5h-97c1-9 5-16 11-21s15-8 24-8c11 0 22 4 30 12zM779 140v12h33v-127h-33v14c-10-8-24-14-38-14-35 0-63 29-63 64 0 36 28 63 63 63 14 0 28-4 38-12zM430 104h67c-2 6-7 13-13 17-5 4-12 6-20 6s-16-2-23-7c-4-3-7-9-11-16zM227 54c19 0 35 16 35 35s-16 36-35 36-34-17-34-36 15-35 34-35zM741 54c19 0 35 16 35 35s-16 36-35 36-34-17-34-36 15-35 34-35z" />
<glyph unicode="&#xe94e;" glyph-name="heart" data-tags="heart" horiz-adv-x="768" d="M582 676c166 0 221-192 163-297-89-163-361-336-361-336s-273 173-361 336c-58 105-4 297 163 297 154 0 193-133 198-153 5 20 44 153 198 153z" />
<glyph unicode="&#xe94f;" glyph-name="heartempty" data-tags="heartempty" horiz-adv-x="768" d="M384 38c5 0 11 1 15 4 11 7 259 165 344 320 36 66 32 155-9 224-36 61-96 95-168 95-99 0-153-53-182-98-29 45-84 98-182 98-73 0-132-34-169-95-41-69-44-158-8-224 84-155 333-313 343-320 5-3 10-4 16-4zM202 621c118 0 148-98 152-117 4-13 16-24 30-24 13 0 26 11 29 24 5 19 35 117 153 117 65 0 100-35 117-66 30-49 33-118 8-164-67-120-252-250-307-288-56 38-241 168-307 288-25 46-22 115 8 164 17 31 52 66 117 66z" />
<glyph unicode="&#xe950;" glyph-name="help" data-tags="help" d="M358 718c198 0 359-161 359-359s-161-358-359-358-358 160-358 358 160 359 358 359zM331 248h24c3 61 17 81 74 115 35 22 46 29 59 43 18 19 27 43 27 71 0 71-57 114-150 114-32 0-57-6-82-15-50-19-81-59-81-103 0-22 15-33 46-33 26 0 40 11 39 29v24c0 15 6 41 14 54 10 16 31 27 55 27 45 0 74-36 74-89 0-20-3-39-11-57-7-14-15-25-39-51-38-40-49-69-49-114v-15zM344 103c29 0 52 23 52 52s-22 52-52 52c-29 0-51-23-51-52s22-52 51-52z" />
<glyph unicode="&#xe951;" glyph-name="horizontal" data-tags="horizontal" horiz-adv-x="687" d="M330 589h-287v-179c-15-4-31-11-43-21v261c0 37 31 68 68 68h237c37 0 68-31 68-68v-238h-43v177zM471 505h69c-3 28-15 54-35 74-27 27-62 38-96 35v51c47 3 96-13 132-50 31-31 47-69 50-110h67l-92-100zM68 374h552c37 0 67-31 67-68v-238c0-37-30-67-67-67h-552c-37 0-68 30-68 67v238c0 37 31 68 68 68zM134 45h424v286h-424v-286zM78 150c20 0 38 17 38 37s-18 37-38 37-37-17-37-37 17-37 37-37z" />
<glyph unicode="&#xe952;" glyph-name="telescope" data-tags="telescope" horiz-adv-x="941" d="M316.223 721.167c-17.638-10.37-23.859-22.822-23.859-47.023s7.258-50.133 21.44-78.834c63.965-127.589 231.321-285.267 362.372-341.282 71.577-30.431 117.562-28.006 135.542 7.953 15.564 29.738-2.074 87.137-48.413 157.327-34.922 52.902-97.851 123.783-104.081 116.869-1.732-1.732-20.401-34.227-41.143-72.271-45.644-81.945-46.336-83.335-53.249-79.185-15.564 8.99-82.298 69.503-82.298 74.345 0 3.806 27.314 26.628 72.613 60.163 39.765 29.738 71.918 55.671 70.881 57.403-1.037 1.378-17.98 15.564-37.345 31.117-117.221 94.399-226.484 140.043-272.474 113.415zM249.147 683.824c-14.174-8.648-20.748-16.601-28.701-34.922-10.37-24.896-15.211-57.403-15.211-102.693 0.342-114.793 44.258-218.531 126.21-297.019 60.855-58.781 133.468-96.814 209.887-110.646 34.227-6.221 107.194-6.221 139.348 0 52.56 10.027 93.703 33.19 102.352 57.403 1.732 5.879 3.11 10.37 2.769 10.37s-13.832 0.695-30.080 1.037c-19.361 0.695-36.996 3.806-51.865 8.99-99.583 34.581-227.172 128.977-318.46 235.125-76.067 88.176-120.673 170.464-120.673 221.988 0 9.331-1.037 16.943-2.417 16.943-1.732 0-7.258-2.769-13.137-6.574zM687.938 648.902c-10.37-4.147-22.127-20.053-22.127-29.738 0-11.063 16.601-28.701 29.738-31.117 16.248-3.11 33.19 12.795 33.19 31.117 0 21.44-22.127 37.691-40.802 29.738zM211.114 198.701c-68.466-124.478-87.824-162.17-88.176-169.778 0-3.457 3.806-10.027 8.648-14.527l8.295-8.648h167.701c181.186 0 182.918 0 190.519 18.322 4.496 10.37 3.457 14.527-19.016 87.824l-7.611 25.237-32.153 15.211c-61.202 28.701-111.683 67.429-151.448 114.793-11.759 14.174-22.127 25.591-23.164 25.591s-25.237-42.534-53.597-94.051z" />
<glyph unicode="&#xe953;" glyph-name="hot" data-tags="hot" horiz-adv-x="819" d="M630 355c0 125-65 190-190 190 125 0 190 64 190 189 0-125 64-189 189-189-125 0-189-65-189-190zM345 676c0-227 119-346 346-346-227 0-346-119-346-346 0 227-118 346-345 346 227 0 345 119 345 346zM595 198c0-59 31-91 90-91h1c-60 0-91-31-91-90 0 59-31 90-90 90 59 0 90 32 90 91z" />
<glyph unicode="&#xe954;" glyph-name="image" data-tags="image" d="M0 66v586h717v-586h-717zM644 260v319h-571v-271l156 93 204-111 83 49zM510 408c-32 0-57 26-57 58s25 58 57 58 57-26 57-58-25-58-57-58z" />
<glyph unicode="&#xe955;" glyph-name="info" data-tags="info" d="M358 718c198 0 359-161 359-359s-161-358-359-358-358 160-358 358 160 359 358 359zM354 586c-10-12-15-26-15-41 0-12 4-22 10-29 7-7 17-11 27-11 14 0 27 6 37 18 9 11 14 27 14 44 0 10-3 19-10 26s-17 11-27 11c-13 0-26-6-36-18zM263 379l12-13c9 10 18 18 24 23 6 4 11 6 15 6 3 0 6-1 8-3 1-3 2-6 2-11 0-25-3-41-16-101s-20-104-20-133c0-11 2-19 6-24 3-5 9-9 17-9 13 0 32 10 54 27 22 18 44 43 68 75l-13 11c-8-10-16-17-22-22-6-4-11-8-15-8-3 0-6 3-8 5-1 3-2 7-2 13 0 4 1 17 5 40 3 23 2 23 8 57 1 10 4 24 7 41 8 51 13 82 13 92 0 9-3 17-6 22-4 5-10 7-17 7-12 0-28-9-50-25-22-17-44-40-70-70z" />
<glyph unicode="&#xe956;" glyph-name="instapaper" data-tags="instapaper" horiz-adv-x="665" d="M129 692h408c72 0 129-57 129-129v-307c-3-30-18-58-34-67-18-10-54 3-81-13-28-16-31-52-49-66-22-16-40-21-72-24h-316c-62 0-114 50-114 112v365c0 72 57 129 129 129zM385 552h29v38h-160v-38h27c10 0 19-9 19-20v-285c0-11-9-20-19-20h-27v-38h160v38h-29c-10 0-19 9-19 20v285c0 11 9 20 19 20zM552 86h-121c114 0 235 72 235 170v-58c0-62-52-112-114-112zM114 71h438c62 0 114 52 114 114v-13c0-62-52-114-114-114h-438c-62 0-114 52-114 114v13c0-62 52-114 114-114zM114 45h438c62 0 114 51 114 113v-3c0-72-57-129-129-129h-408c-72 0-129 57-129 129v3c0-62 52-113 114-113z" />
<glyph unicode="&#xe957;" glyph-name="internetexplorer" data-tags="internetexplorer" horiz-adv-x="737" d="M537 236h183c-44-132-170-227-317-227-144 0-267 92-314 220-41-85-50-154-18-185 38-39 96-35 166-1-89-51-165-65-212-18-55 55-18 253 119 426 0 0 0 1 1 1 5 7 12 15 18 22 0 0 1 0 1 1 2 3 5 6 8 9 1 1 2 2 2 3 3 2 5 5 7 7l3 3c2 2 4 6 6 8 1 1 3 2 4 3l25 25c1 1 2 1 3 2 5 5 11 10 15 15 2 1 3 2 4 3l15 12c1 2 2 3 3 4l12 9c2 2 4 3 5 4 4 4 10 8 14 11 2 2 4 3 6 5l12 9c3 2 6 4 8 5 2 2 5 3 7 5l15 9 4 4c10 6 21 12 31 18-85-36-183-111-268-213-11-13-22-27-31-40 25 160 162 283 329 283 8 0 16 0 24-1 119 55 225 63 268 19 37-36 38-89 13-152 14 48 9 88-20 117-32 32-91 27-165-6 125-48 214-170 214-311 0-14-1-28-2-41h-474c3-26 12-48 22-67 27-49 71-76 120-76 54 0 107 17 134 76zM263 396h287c-16 93-80 131-147 131-66 0-123-48-140-131z" />
<glyph unicode="&#xe958;" glyph-name="iphone" data-tags="iphone" horiz-adv-x="416" d="M76 743h265c42 0 76-34 76-76v-616c0-42-34-76-76-76h-265c-42 0-76 34-76 76v616c0 42 34 76 76 76zM49 126h319v473h-319v-473zM208 21c24 0 42 18 42 41 0 24-18 42-42 42-23 0-41-18-41-42 0-23 18-41 41-41z" />
<glyph unicode="&#xe959;" glyph-name="italic" data-tags="italic" horiz-adv-x="456" d="M8 63l-8-36c3 0 8 0 16 1 6 0 16 1 27 2 35 4 62 6 79 5h87c19-2 35-4 46-6 10-1 17-1 19-1 3-2 6-2 8-2h11c3 0 7 0 12 1h5c1 1 3 1 5 1 2 3 3 7 3 10s2 5 3 7c0 4 1 7 1 12 0 3 1 8 1 13-8 1-15 3-20 4s-8 1-9 1c-17 2-33 5-53 9-1 3-1 5-1 7v5l6 19 18 102 18 68 27 136c5 31 16 74 29 132 1 9 3 21 6 35 4 16 7 28 11 38 11 4 26 9 45 14 17 4 35 8 49 13 2 9 4 17 6 22 0 3 1 6 1 9 1 2 1 5 1 8-3 0-9 0-17-1-8 0-17-1-29-2-45-3-76-4-96-4h-11c-6 0-13 1-22 1l-141 6-9-45h8c2-1 7-1 10-1 31-2 51-6 64-12v-18l-4-20-9-59-7-28-14-68c0-1-3-11-8-27-5-17-11-42-17-77l-5-28-26-116-12-59c-3-18-10-34-18-45-12-5-28-12-52-17-15-4-28-6-34-9z" />
<glyph unicode="&#xe95a;" glyph-name="key" data-tags="key" d="M318 223l-39 40s-111-43-223 68c-95 95-53 244 9 305 66 66 207 106 310 3s59-225 59-225l283-282-8-147-144-9-8 72-75 9-7 75-74 10-11 72zM104 596c-44-44-56-103-27-131 29-29 87-17 131 27s57 103 28 131c-28 29-88 17-132-27zM683 76l2 42-269 269-22-22z" />
<glyph unicode="&#xe95b;" glyph-name="keyboard" data-tags="keyboard" horiz-adv-x="768" d="M30 605h708c16 0 30-14 30-30v-432c0-16-14-30-30-30h-708c-16 0-30 14-30 30v432c0 16 14 30 30 30zM51 165h666v389h-666v-389zM123 513h61v-62h-61v62zM239 513h61v-62h-61v62zM353 513h62v-62h-62v62zM469 513h60v-62h-60v62zM584 513h61v-62h-61v62zM181 390h62v-62h-62v62zM297 328v62h61v-62h-61zM412 328v62h61v-62h-61zM589 328h-62v62h62v-62zM529 206h-290v61h290v-61z" />
<glyph unicode="&#xe95c;" glyph-name="kudakurage" data-tags="kudakurage" horiz-adv-x="683" d="M613 575l5-8c17-33 42-79 22-131-7-18-22-31-36-42-6-5-12-10-17-15 13-50 34-90 61-117 2-2 6-5 10-8 12-7 28-18 24-38 0-2-2-4-5-4-23 0-43 14-66 43-20 29-39 65-54 113-5-2-11-3-17-5-3 0-7-1-10-2 4-24 8-46 11-70 6-52 12-101 36-139 3-5 7-9 11-14 10-10 21-23 13-43-1-2-2-3-3-3-2-1-3 0-4 0-60 33-71 114-81 193-3 24-6 49-10 72-4 0-7-1-11-1-11-2-24-4-36-4 3-67 11-132 18-190 1-16 3-33 5-48 1-8 4-21 8-35v-2c0-1 1-3 1-5 3-7 9-18 4-27-2-3-6-6-10-8h-5c-20 0-25 38-27 62l-1 6c-2 17-5 37-7 55-8 61-16 124-19 189-13-2-28-3-41-4-9 0-20-1-30-1 18-45 11-102 5-156-7-60-13-118 10-159 3-5 7-8 12-12 9-7 20-16 12-38-1-3-4-4-6-3-72 24-63 113-55 199 5 55 10 112-5 153-1 6-1 10 1 13-13-1-27-2-42-2-8-36-15-75-21-118-2-12-4-25-6-37-8-56-17-114-16-179 1-5 2-11 3-16 3-13 5-29-10-38-1-1-2-1-3-1h-1c-18 2-17 28-17 42v5c0 74 13 150 24 225 6 40 11 77 15 114-9 1-22 1-32-1-5 0-10-1-14-1-8-78-28-152-60-224-1-4-3-8-4-12-7-18-16-40-36-48-2 0-5 0-6 3-11 18 2 37 11 51 4 5 7 11 9 15 30 63 48 136 56 216-5 2-15 2-19 2-3 0-7-1-10-1h-13c-4-68-28-128-69-170-13-14-28-28-43-26-2 0-4 1-5 2-4 6-5 13-4 18 3 8 12 13 20 17 3 2 7 4 9 6 36 38 59 93 63 153 0 1-4 1-7 0h-9c-1 1-2 1-3 2-6 5-11 9-17 14-32 26-62 50-68 102-6 55 13 95 30 133 3 5 5 11 8 16 24 53 54 94 89 119 44 31 101 47 166 47 37 0 76-6 114-17 90-26 155-82 205-177zM575 407c41 24 50 77 21 130-41 77-93 137-140 164-31 17-105 38-161 38-6 0-12-1-17-1-87-8-150-43-191-106-11-19-50-85-55-136-4-41 3-70 22-92 26-28 71-41 143-41 37 0 76 4 114 7 20 2 40 4 58 5 11 1 23 2 35 2 65 3 131 6 171 30zM457 576c-2-3-5-6-8-7-1-1-4-2-5-2h-4s-2 1-3 1c-5 2-10 6-12 11-1 0-1 0-2 1-1 4-1 8-1 12 0 7 2 13 5 17 2 4 5 6 9 7 1 1 2 2 3 2h4c1 0 2 0 3-1 6-2 11-5 14-10 0-1 0-1 1-1 1-4 2-8 1-12 0-6-1-13-5-18zM200 552c-12 0-22 7-24 18-1 7 0 15 4 20 8 9 25 9 33 0 4-4 8-13 6-27 0 0 0-1-1-2-5-6-11-9-18-9zM528 510c1-1 1-2 1-3-3-14-17-30-32-30-5 0-10 1-13 4-2 1-3 3-2 5-6-5-12-9-19-12h-2c-2 0-4 1-5 3 0 0 0 1-1 1-2 1-4 3-3 6 2 16 16 29 31 29h7c1-1 4-2 4-3 1-1 1-3 0-4 0-2-1-3-2-5 9 9 22 14 33 12 1-1 2-1 3-3zM559 506c2-1 3-3 3-4 0-5-1-10-4-13-4-4-10-7-16-7s-13 3-16 6c-1 1-1 3-1 4 0 9 10 17 22 17 5 0 9-1 12-3zM104 456v2l-1 1c-1 0-2 1-3 2-1 2-1 3-1 4 3 13 17 26 30 26 2 0 4 0 5-1 3 0 5-3 4-6-2-15-12-26-27-30h-1c-2 0-5 1-6 2zM184 487v-4c-6-12-14-27-31-33-1-1-1-1-2-1-2 0-5 1-6 3v2c-2 0-3 1-4 2 0 1-1 4 0 5 4 15 16 30 32 30 2 0 5 0 7-1 2 0 3-1 4-3zM218 486c2 0 3 0 4-1 1-2 2-3 1-5-2-19-17-27-28-32-1-1-2-1-2-1-2 0-4 1-5 2-5 6-6 13-3 19 5 11 21 18 33 18zM392 472c4 0 8-1 12-4 2-1 4-3 3-5-5-31-44-44-78-44-37 0-64 15-70 40 0 1 0 4 2 5 4 3 9 5 14 5 7 0 15-5 20-10 4-3 8-7 12-8 15-5 32-4 49 2 5 2 10 6 14 9 7 5 14 10 22 10z" />
<glyph unicode="&#xe95d;" glyph-name="laugh" data-tags="laugh" d="M358 708c198 0 359-155 359-349s-161-349-359-349-358 155-358 349 160 349 358 349zM138 418l3-1c5 0 10 3 12 8 0 1 11 49 55 49 45 0 55-47 56-49 2-5 6-8 11-8l32 10c3 1 5 3 6 6 2 3 2 6 1 8-1 4-20 85-106 85-91 0-105-81-106-84s-1-6 1-9c1-3 4-5 7-6zM575 417l32 10c3 1 5 3 6 6 2 3 2 6 1 8-1 4-20 85-105 85-91 0-106-81-107-84s-1-6 1-9c1-3 4-5 7-6l28-9 3-1c5 0 10 3 12 8 0 1 11 49 56 49 44 0 55-47 55-49 2-5 6-8 11-8zM554 260c7 20-4 43-24 51s-325 8-344 0c-20-8-30-31-23-51 32-81 108-134 195-134s164 53 196 134z" />
<glyph unicode="&#xe95e;" glyph-name="left" data-tags="left" horiz-adv-x="475" d="M227 361l246-246-119-114-354 354 362 363 113-112z" />
<glyph unicode="&#xe95f;" glyph-name="wink" data-tags="wink" d="M358 708c198 0 359-155 359-349s-161-349-359-349-358 155-358 349 160 349 358 349zM587 376l8 21c3 8-1 17-9 20l-117 42 108 62c7 4 9 13 5 20l-12 20c-4 7-13 9-19 5l-161-92c-7-4-8-10-7-23s3-18 10-21l175-63c7-3 16 2 19 9zM258 537h-41c-11 0-19-9-19-20v-100c0-11 8-21 19-21h41c10 0 20 10 20 21v100c0 11-10 20-20 20zM228 295l-39-13c-4-1-7-4-8-7-2-3-2-7-1-11s36-105 178-104c142-1 178 100 179 104s1 8-1 11c-1 3-5 6-9 7l-34 12-5 1c-6 0-11-5-13-10 0-1-22-61-117-61-94 0-115 58-116 61-2 5-8 10-14 10z" />
<glyph unicode="&#xe960;" glyph-name="link" data-tags="link" d="M333 442l80 81c7 7 15 16 23 26 8 9 17 17 26 24 17 15 37 28 62 28 22 0 41-10 55-23s22-32 22-54c0-9-1-19-4-26-7-14-13-24-19-32-3-4-6-8-6-12 0-3 0-6 2-7 11-27 19-50 24-78 3-11 9-16 19-16 4 0 8 1 12 4 8 5 15 13 22 21 4 4 7 8 9 10 36 35 57 85 57 136 0 54-22 102-57 137-35 34-84 57-136 57s-102-21-137-58l-137-136c-36-37-56-85-56-136 0-15 6-46 16-75 10-28 23-53 40-53 9 0 28 15 44 32s32 36 32 43c0 5-4 11-8 20-5 9-7 20-7 33 0 20 8 40 22 54zM330 58l137 136c36 35 56 86 56 137 0 15-6 45-16 74-9 28-23 54-40 54-7 0-28-16-43-33-17-17-33-35-33-42 0-5 3-13 8-21 5-9 9-19 9-32-1-20-9-40-23-56l-81-80c-7-8-15-16-23-25l-25-25c-17-16-38-27-63-27-42 0-76 33-76 76 0 10 2 19 5 26 6 14 12 24 19 32 3 4 4 8 4 11 0 2-1 4-2 8-12 27-19 50-24 78-2 5-3 9-6 11-3 4-8 5-13 5-4 0-7-1-11-4-8-5-16-13-23-21-3-4-7-7-9-9-36-36-57-86-57-137 0-53 21-102 57-137 35-35 83-56 136-56 52 0 102 20 137 57z" />
<glyph unicode="&#xe961;" glyph-name="linkedin" data-tags="linkedin" horiz-adv-x="665" d="M0 608v-498c0-47 37-84 84-84h498c23 0 45 11 59 25 15 15 25 34 25 59v498c0 47-37 84-84 84h-498c-25 0-44-10-59-25-14-14-25-36-25-59zM90 542c0 32 26 60 58 60 33 0 60-28 60-60 0-33-27-59-60-59-32 0-58 26-58 59zM251 131v305c0 7 7 13 12 13h85c12 0 12-14 12-23 24 24 55 30 87 30 78 0 128-37 128-119v-206c0-7-6-13-12-13h-88c-7 0-12 7-12 13v186c0 31-9 48-44 48-44 0-55-29-55-68v-166c0-7-7-13-14-13h-87c-5 0-12 7-12 13zM92 131v305c0 7 7 13 12 13h87c8 0 13-5 13-13v-305c0-7-6-13-13-13h-87c-6 0-12 7-12 13z" />
<glyph unicode="&#xe962;" glyph-name="list" data-tags="list" horiz-adv-x="768" d="M129 588c0 36-28 64-64 64s-65-28-65-64 29-65 65-65 64 29 64 65zM204 535h564v104h-564v-104zM129 359c0 36-28 65-64 65s-65-29-65-65 29-64 65-64 64 28 64 64zM204 307h564v104h-564v-104zM129 131c0 36-28 64-64 64s-65-28-65-64 29-65 65-65 64 29 64 65zM204 80h564v103h-564v-103z" />
<glyph unicode="&#xe963;" glyph-name="location" data-tags="location" horiz-adv-x="665" d="M333 8l333 702-666-356h333v-346z" />
<glyph unicode="&#xe964;" glyph-name="lock" data-tags="lock" horiz-adv-x="550" d="M468 386h67c9 0 16-8 16-17v-352c0-9-7-16-16-16h-519c-9 0-16 7-16 16v352c0 9 7 17 16 17h65v164c0 92 59 168 150 168h86c92 0 151-76 151-168v-164zM166 386h218v156c0 51-42 94-94 94h-31c-51 0-93-43-93-94v-156zM229 103h93l-23 101c16 8 27 25 27 44 0 29-23 51-51 51s-50-22-50-51c0-19 11-36 27-44z" />
<glyph unicode="&#xe965;" glyph-name="mpia" data-tags="mpia" horiz-adv-x="584" d="M188.84 705.871c-51.505-17.747-106.821-60.3-137.919-106.37-10.711-15.695-29.046-52.678-34.479-68.959-9.093-27.579-17.025-76.297-16.146-99.188l0.442-11.591h203.946l0.442 145.698c0.148 79.964-0.148 145.557-0.736 145.557-0.736-0.148-7.624-2.345-15.56-5.141zM375.917 565.457l0.442-145.698 204.689-0.736v12.035c-0.148 30.082-6.9 71.891-16.439 100.952-6.156 18.629-23.627 52.678-37.704 73.357-8.211 12.177-45.635 49.588-61.044 61.179-25.096 18.784-58.541 36.396-80.706 42.401-3.97 1.173-7.78 2.052-8.505 2.052-0.586 0-0.879-65.586-0.736-145.557zM271.163 635.298c-25.234-6.021-45.929-24.941-56.195-51.212-4.262-10.857-4.104-41.966 0.293-53.85 7.624-20.25 25.978-38.877 45.777-46.517 42.846-16.146 89.795 5.141 104.905 47.536 3.97 10.857 4.691 34.338 1.759 46.223-6.156 24.061-21.569 42.552-44.165 52.819-16.281 7.487-35.066 9.246-52.384 4.984zM0.002 215.072v-176.073l580.309 0.736 0.442 175.78 0.293 175.631h-581.038v-176.073z" />
<glyph unicode="&#xe966;" glyph-name="logout" data-tags="logout" d="M0 555v-391c0-36 15-68 39-93 24-24 55-37 91-37h196v81h-196c-27 0-48 22-48 49v391c0 27 21 48 48 48h196v82h-196c-36 0-67-14-91-38-24-25-39-56-39-92zM215 437v-156c0-18 16-33 34-33h181v-123c0-11 6-20 16-25 4-1 8-1 10-1 7 0 13 2 18 7l235 235c11 9 10 27 0 37l-235 234c-14 15-44 6-44-18v-124h-181c-18 0-34-15-34-33z" />
<glyph unicode="&#xe967;" glyph-name="magic" data-tags="magic" d="M304 563l-29-93-28 93-93 29 93 28 28 94 29-94 93-28zM466 614l-14-47-16 47-46 15 46 14 16 46 14-46 46-14zM9 103l573 556c4 5 10 8 17 8 9 1 18-2 25-9 3-2 7-6 13-11 11-10 23-22 32-34 4-6 6-11 6-16 1-10-2-19-8-25l-573-558c-5-5-11-7-18-8-9-1-18 2-25 9-3 3-7 6-13 12-11 9-23 21-31 34-4 6-6 12-7 17-1 10 2 18 9 25zM469 507l42-43 133 129-42 44zM190 450l-13-46-14 46-46 15 46 14 14 47 13-47 48-14zM656 485l15-47 46-14-46-15-15-46-15 46-46 15 46 14z" />
<glyph unicode="&#xe968;" glyph-name="mail" data-tags="mail" horiz-adv-x="768" d="M756.32 595.578l-372.32-318.993-372.32 318.993v18.422h744.639v-18.422zM756.32 145.692l-246.274 177.434 246.274 213.308v-390.742zM11.68 536.434l246.274-213.308-246.274-177.434v390.742zM384 213.563l101.806 89.202 270.514-194.886v-3.878h-744.639v3.878l270.514 194.886z" />
<glyph unicode="&#xe969;" glyph-name="map" data-tags="map" d="M0 69l220 83v497l-220-83v-497zM469 69l-221 83v497l221-83v-497zM497 69l220 83v497l-220-83v-497z" />
<glyph unicode="&#xe96a;" glyph-name="meal" data-tags="meal" horiz-adv-x="570" d="M201 458v234h67v-268c0-37-30-68-67-68v-296c0-18-15-34-34-34h-67c-18 0-33 16-33 34v296c-37 0-67 31-67 68v268h67v-234h33v234h67v-234h34zM369 356v236c0 55 45 100 100 100s100-45 100-100v-532c0-18-14-34-32-34h-68c-18 0-34 16-34 34v296h-66z" />
<glyph unicode="&#xe96b;" glyph-name="memo" data-tags="memo" horiz-adv-x="674" d="M158 718h401c63 0 116-53 116-116v-485c0-63-53-116-116-116h-401c-63 0-116 53-116 116v11h-20c-12 0-22 9-22 20s10 22 22 22h20v168h-20c-12 0-22 10-22 21s10 22 22 22h20v168h-20c-12 0-22 10-22 21s10 21 22 21h20v11c0 63 53 116 116 116zM611 117v485c0 29-23 52-52 52h-401c-29 0-53-23-53-52v-11h42c11 0 22-10 22-21s-11-21-22-21h-42v-168h42c11 0 22-11 22-22s-11-21-22-21h-42v-168h42c11 0 22-11 22-22s-11-20-22-20h-42v-11c0-29 24-53 53-53h401c29 0 52 24 52 53zM253 591h253c12 0 21-10 21-21s-9-21-21-21h-253c-11 0-22 10-22 21s11 21 22 21zM253 507h253c12 0 21-10 21-21 0-12-9-21-21-21h-253c-11 0-22 9-22 21 0 11 11 21 22 21zM253 423h253c12 0 21-10 21-22 0-11-9-20-21-20h-253c-11 0-22 9-22 20 0 12 11 22 22 22zM253 338h253c12 0 21-10 21-21 0-12-9-21-21-21h-253c-11 0-22 9-22 21 0 11 11 21 22 21zM253 254h253c12 0 21-10 21-22 0-11-9-20-21-20h-253c-11 0-22 9-22 20 0 12 11 22 22 22zM253 170h253c12 0 21-11 21-22s-9-20-21-20h-253c-11 0-22 9-22 20s11 22 22 22z" />
<glyph unicode="&#xe96c;" glyph-name="menu" data-tags="menu" horiz-adv-x="665" d="M44 578h578c25 0 44 19 44 44 0 24-19 43-44 43h-578c-25 0-44-19-44-43 0-25 19-44 44-44zM44 403h578c25 0 44 19 44 44 0 24-19 43-44 43h-578c-25 0-44-19-44-43 0-25 19-44 44-44zM44 228h578c25 0 44 19 44 43 0 25-19 44-44 44h-578c-25 0-44-19-44-44 0-24 19-43 44-43zM44 53h578c25 0 44 19 44 43 0 25-19 44-44 44h-578c-25 0-44-19-44-44 0-24 19-43 44-43z" />
<glyph unicode="&#xe96d;" glyph-name="minus" data-tags="minus" horiz-adv-x="757" d="M0 438h758v-158h-758v158z" />
<glyph unicode="&#xe96e;" glyph-name="mixi" data-tags="mixi" horiz-adv-x="715" d="M352 689c200 13 376-119 363-319-12-193-177-293-335-354v71c-209-15-399 86-379 301 15 166 181 289 351 301zM514 240h51v158c0 41-3 71-20 91-18 20-31 31-75 31-33 0-67-17-96-53-19 35-39 53-83 53-28 0-69-16-91-51v46h-52v-275h52v142c0 43 20 67 36 79 11 8 27 13 39 13 20 0 36-6 44-19 8-12 13-23 13-67v-148h51v154c0 43 37 80 71 80 33 0 42-11 52-23 7-8 8-29 8-53v-158z" />
<glyph unicode="&#xe96f;" glyph-name="move" data-tags="move" d="M224 123l116-116c5-5 11-8 18-7 8 0 15 2 20 7l115 116c16 16 11 28-12 28h-78v164h162v-80c0-23 14-27 30-11l115 115c5 5 7 11 7 19 1 7-2 14-7 20l-115 114c-16 16-30 12-29-11v-78h-163v162h78c23 0 28 13 12 29l-115 114c-10 10-28 11-38 0l-116-114c-16-16-11-29 12-29h78v-161h-161v77c0 23-14 27-30 11l-115-114c-5-5-7-12-8-20 0-8 3-14 8-19l115-115c16-16 29-12 29 11v79h162v-163h-78c-23 0-28-12-12-28z" />
<glyph unicode="&#xe970;" glyph-name="music" data-tags="music" horiz-adv-x="667" d="M182 562v-349c-15 4-31 7-45 7-32 0-65-11-92-29s-45-47-45-81c0-36 18-63 45-81s60-28 92-28c30 0 64 10 91 28s44 45 44 81v366l305 87v-241c-14 4-31 6-46 6-31 0-65-9-92-27s-44-47-44-81c0-36 17-64 44-81 27-18 61-29 92-29 30 0 65 11 92 29 28 17 45 45 45 81v461c0 22-15 37-37 37-2 0-14-4-33-9-40-11-100-28-168-48-35-9-66-19-97-27-30-9-56-18-79-24-24-7-39-11-45-13-16-5-27-19-27-35z" />
<glyph unicode="&#xe971;" glyph-name="newwindow" data-tags="newwindow" d="M430 610h-322c-19 0-36-17-36-36v-286c0-19 17-36 36-36h35v-72h-35c-59 0-108 49-108 108v286c0 59 49 108 108 108h322c59 0 108-49 108-108h-72c0 19-17 36-36 36zM287 538h322c59 0 108-48 108-107v-287c0-59-49-107-108-107h-322c-59 0-108 48-108 107v287c0 59 49 107 108 107zM287 108h322c19 0 36 17 36 36v287c0 19-17 36-36 36h-322c-19 0-36-17-36-36v-287c0-19 17-36 36-36z" />
<glyph unicode="&#xe972;" glyph-name="next" data-tags="next" horiz-adv-x="489" d="M0 78v563l489-282z" />
<glyph unicode="&#xe973;" glyph-name="notify" data-tags="notify" horiz-adv-x="678" d="M0 692h679v-500h-244l-96-166-95 166h-244v500z" />
<glyph unicode="&#xe974;" glyph-name="off" data-tags="off" horiz-adv-x="660" d="M459 635c118-50 201-167 201-304 0-181-148-330-330-330-181 0-330 149-330 330 0 137 83 254 202 304v-111c-62-42-104-112-104-193 0-128 104-232 232-232s232 104 232 232c0 81-41 151-103 193v111zM385 333v385h-110v-385h110z" />
<glyph unicode="&#xe975;" glyph-name="opera" data-tags="opera" horiz-adv-x="666" d="M330 718c197 0 337-145 337-357 0-197-140-360-337-360s-330 163-330 360c0 208 133 357 330 357zM331 82c104 0 126 120 126 274 0 185-28 283-126 283-113 0-122-132-122-297 0-154 29-260 122-260z" />
<glyph unicode="&#xe976;" glyph-name="ordble" data-tags="ordble" horiz-adv-x="709" d="M356 718c96 0 179-35 249-105 70-71 105-156 105-256 0-99-35-184-104-253s-152-103-249-103c-102 0-188 35-256 106s-101 155-101 252c0 66 15 126 47 180s75 98 130 130c5 3 11 7 17 9 0 0 58-35 57-94-51 25-105-28-105-28s58 16 93-9c-85-50-130-153-103-253 32-121 156-193 277-160s192 156 159 276c-30 113-138 182-250 166 8 39 50 81 50 81s-44 6-79-57c-11 69-98 78-99 78 50 27 104 40 162 40zM222 480c23 23 54 29 69 14 14-15 8-45-16-68-23-24-53-30-68-15-14 14-9 45 15 69z" />
<glyph unicode="&#xe977;" glyph-name="paint" data-tags="paint" d="M326 369h82v309h-82v-309zM457 456l85-85c14-14 14-36 0-50l-267-266c-13-14-36-14-49 0l-216 216c-13 13-13 36 0 49l266 267v-259h181v128zM531 432c0 0 67-27 67-159 0-82-9-95-9-95s128-14 128 111c0 126-186 143-186 143z" />
<glyph unicode="&#xe978;" glyph-name="paramater" data-tags="paramater" d="M414 632v-37h303v-60h-303v-37c0-11-10-20-21-20h-69c-11 0-21 9-21 20v37h-303v60h303v37c0 11 10 20 21 20h69c11 0 21-9 21-20zM125 446h71c11 0 19-9 19-20v-37h502v-59h-502v-37c0-11-8-21-19-21h-71c-11 0-21 10-21 21v37h-104v59h104v37c0 11 10 20 21 20zM514 240h71c11 0 20-9 20-20v-37h112v-59h-112v-37c0-11-9-21-20-21h-71c-11 0-20 10-20 21v37h-494v59h494v37c0 11 9 20 20 20z" />
<glyph unicode="&#xe979;" glyph-name="pause" data-tags="pause" horiz-adv-x="665" d="M0 661v-604c0-17 14-31 31-31h212c16 0 29 14 29 31v604c0 17-13 31-29 31h-212c-17 0-31-14-31-31zM393 661v-604c0-17 14-31 30-31h212c17 0 31 14 31 31v604c0 17-14 31-31 31h-212c-16 0-30-14-30-31z" />
<glyph unicode="&#xe97a;" glyph-name="pc" data-tags="pc" d="M59 702h598c33 0 60-26 60-59v-382c0-33-27-61-60-61h-233v-99h170c25 0 27-82 30-85h-531s0 85 30 85h170v99h-234c-33 0-59 28-59 61v382c0 33 26 59 59 59zM59 261h598v382h-598v-382z" />
<glyph unicode="&#xe97b;" glyph-name="pencil" data-tags="pencil" horiz-adv-x="695" d="M587 718l-109-98s36-22 69-53c32-31 55-66 55-66l93 111s-1 20-45 63c-45 43-63 43-63 43zM232 169l-5-48 346 360s-23 32-51 59c-29 28-62 50-62 50l-346-360 54 3 6-58zM0 16l86 176 48 4 4-55 58-8-6-44-174-88z" />
<glyph unicode="&#xe97c;" glyph-name="phone" data-tags="phone" d="M0 539c0-30 11-63 25-98s32-68 46-93c38-66 87-131 143-185s122-99 196-126c43-17 86-36 134-36 24 0 58 9 89 22 30 13 57 33 67 57 4 9 9 21 12 35 3 13 5 26 5 35 0 5 0 10-1 11-3 6-10 11-18 16-18 9-21 12-48 28-28 16-57 34-82 47-12 7-20 10-23 10-16 0-36-22-53-46-18-24-38-46-52-46-7 0-14 3-22 8s-16 9-21 12c-88 50-147 109-197 196-6 10-20 31-20 42 0 13 18 28 36 44 17 15 35 33 35 55 0 3-2 12-6 25-9 26-21 56-31 85-5 14-9 24-10 29-2 3-3 7-4 12s-3 9-4 13c-3 9-8 16-13 20-5 2-17 5-29 6-12 0-26 1-32 1-3 0-7 0-11-1h-13c-32-14-55-42-72-75-16-33-26-70-26-103z" />
<glyph unicode="&#xe97d;" glyph-name="photo" data-tags="photo" horiz-adv-x="665" d="M522 20v572h-522v-572h522zM47 155v390h428v-390h-428zM666 698v-571h-118v134h70v390h-428v-38h-47v85h523z" />
</font>
</defs>
</svg>
